<svg width="15" height="16" viewBox="0 0 15 16" fill="none" xmlns="http://www.w3.org/2000/svg">
<path d="M7.50015 8.19477C7.33903 8.19477 7.18799 8.16939 7.04702 8.11864C6.90605 8.0687 6.77515 7.98331 6.65431 7.86247L1.09598 2.30414C0.874451 2.08261 0.758854 1.8055 0.749188 1.47281C0.738715 1.14092 0.854312 0.854141 1.09598 0.612474C1.31751 0.390946 1.59945 0.280182 1.94181 0.280182C2.28417 0.280182 2.56612 0.390946 2.78765 0.612474L7.50015 5.29477L12.2126 0.612474C12.4342 0.390946 12.7109 0.274946 13.0428 0.264474C13.3755 0.254807 13.6626 0.370807 13.9043 0.612474C14.1258 0.834002 14.2366 1.11595 14.2366 1.45831C14.2366 1.80067 14.1258 2.08261 13.9043 2.30414L8.34598 7.86247C8.22515 7.98331 8.09424 8.0687 7.95327 8.11864C7.8123 8.16939 7.66126 8.19477 7.50015 8.19477ZM7.50015 15.4448C7.33903 15.4448 7.18799 15.4194 7.04702 15.3686C6.90605 15.3187 6.77515 15.2333 6.65431 15.1125L1.09598 9.55414C0.874451 9.33261 0.758854 9.0555 0.749188 8.72281C0.738715 8.39092 0.854312 8.10414 1.09598 7.86247C1.31751 7.64095 1.59945 7.53018 1.94181 7.53018C2.28417 7.53018 2.56612 7.64095 2.78765 7.86247L7.50015 12.5448L12.2126 7.86247C12.4342 7.64095 12.7109 7.52495 13.0428 7.51447C13.3755 7.50481 13.6626 7.62081 13.9043 7.86247C14.1258 8.084 14.2366 8.36595 14.2366 8.70831C14.2366 9.05067 14.1258 9.33261 13.9043 9.55414L8.34598 15.1125C8.22515 15.2333 8.09424 15.3187 7.95327 15.3686C7.8123 15.4194 7.66126 15.4448 7.50015 15.4448Z" fill="white"/>
</svg>
