<svg width="37" height="29" viewBox="0 0 37 29" fill="none" xmlns="http://www.w3.org/2000/svg">
<path fill-rule="evenodd" clip-rule="evenodd" d="M0 12.8606V16.1768C1.86126 16.6109 2.20274 17.0647 2.40541 19.0775C2.5733 20.7438 2.14477 22.6839 2.55941 24.2298C3.3144 27.046 5.63996 29 9.06427 29C12.6545 29 13.8441 26.518 15.0336 24.1361C16.2768 21.6484 17.572 19.329 18.7955 16.8438L24.2457 5.93342C24.6678 5.08861 25.5888 2.69087 26.5306 2.69087C30.7218 2.69087 28.3407 9.23737 29.7746 12.2691C30.4981 13.7972 31.1965 13.6742 31.8362 14.6296C28.0203 15.6485 30.0782 22.2877 28.8197 24.8782C28.248 26.0553 27.0837 26.3436 25.4341 26.3565C22.1963 26.3818 18.9379 26.3468 15.6972 26.3468C15.37 26.965 15.3291 27.1415 14.8806 27.7415C14.5182 28.2264 14.2308 28.5486 13.9287 29L27.6274 28.9918C34.977 28.4544 33.6015 20.6342 33.6937 19.5848C34.103 14.9307 36.0371 17.3071 36.0371 15.7349C36.0371 12.0132 36.1643 13.0268 35.384 12.629C31.9468 10.8777 35.3476 7.75074 32.8762 3.1986L31.7043 1.71688C28.8351 -0.826695 23.8807 -0.674652 22.0296 3.05375L11.9387 23.0306C11.375 24.1577 10.3178 27.4366 8.14058 25.9559C5.30582 24.0281 8.54217 18.6412 5.37131 15.4486C4.85835 14.9317 4.90375 14.8171 4.20086 14.6296C5.00076 13.5375 6.4815 13.5122 6.82674 10.1811C7.31537 5.46977 6.74884 1.12161 9.81028 0.491064L3.33841 2.92424C1.86861 5.38224 2.71538 8.46425 2.28407 10.7228C1.87237 12.8758 1.42636 12.1763 0.000163471 12.8606H0Z" fill="url(#paint0_linear_124_134)"/>
<defs>
<linearGradient id="paint0_linear_124_134" x1="0.448242" y1="15" x2="36.4482" y2="15" gradientUnits="userSpaceOnUse">
<stop stop-color="#FF00F5"/>
<stop offset="0.513542" stop-color="#9E00FF"/>
<stop offset="1" stop-color="#00F3E5"/>
</linearGradient>
</defs>
</svg>
