<svg width="46" height="46" viewBox="0 0 46 46" fill="none" xmlns="http://www.w3.org/2000/svg">
<g clip-path="url(#clip0_272_8)">
<path d="M23 23C19.8375 23 17.1302 21.874 14.8781 19.6219C12.626 17.3698 11.5 14.6625 11.5 11.5C11.5 8.3375 12.626 5.63021 14.8781 3.37813C17.1302 1.12604 19.8375 0 23 0C26.1625 0 28.8698 1.12604 31.1219 3.37813C33.374 5.63021 34.5 8.3375 34.5 11.5C34.5 14.6625 33.374 17.3698 31.1219 19.6219C28.8698 21.874 26.1625 23 23 23ZM40.25 46H5.75C4.16875 46 2.81558 45.4376 1.6905 44.3126C0.5635 43.1856 0 41.8312 0 40.25V37.95C0 36.3208 0.41975 34.823 1.25925 33.4564C2.09683 32.0917 3.21042 31.05 4.6 30.3312C7.57083 28.8458 10.5896 27.7313 13.6562 26.9876C16.7229 26.2459 19.8375 25.875 23 25.875C26.1625 25.875 29.2771 26.2459 32.3437 26.9876C35.4104 27.7313 38.4292 28.8458 41.4 30.3312C42.7896 31.05 43.9032 32.0917 44.7407 33.4564C45.5802 34.823 46 36.3208 46 37.95V40.25C46 41.8312 45.4376 43.1856 44.3126 44.3126C43.1856 45.4376 41.8312 46 40.25 46ZM5.75 40.25H40.25V37.95C40.25 37.4229 40.1189 36.9437 39.8563 36.5125C39.5918 36.0812 39.2437 35.7458 38.8125 35.5062C36.225 34.2125 33.6135 33.2417 30.9781 32.5939C28.3427 31.948 25.6833 31.625 23 31.625C20.3167 31.625 17.6573 31.948 15.0219 32.5939C12.3865 33.2417 9.775 34.2125 7.1875 35.5062C6.75625 35.7458 6.40933 36.0812 6.14675 36.5125C5.88225 36.9437 5.75 37.4229 5.75 37.95V40.25ZM23 17.25C24.5812 17.25 25.9354 16.6865 27.0624 15.5595C28.1875 14.4344 28.75 13.0812 28.75 11.5C28.75 9.91875 28.1875 8.56558 27.0624 7.4405C25.9354 6.3135 24.5812 5.75 23 5.75C21.4187 5.75 20.0656 6.3135 18.9405 7.4405C17.8135 8.56558 17.25 9.91875 17.25 11.5C17.25 13.0812 17.8135 14.4344 18.9405 15.5595C20.0656 16.6865 21.4187 17.25 23 17.25Z" fill="#9E00FF"/>
</g>
<defs>
<clipPath id="clip0_272_8">
<rect width="46" height="46" fill="white"/>
</clipPath>
</defs>
</svg>
