<svg width="12" height="12" viewBox="0 0 12 12" fill="none" xmlns="http://www.w3.org/2000/svg">
<path d="M6 6C5.175 6 4.46875 5.70625 3.88125 5.11875C3.29375 4.53125 3 3.825 3 3C3 2.175 3.29375 1.46875 3.88125 0.88125C4.46875 0.29375 5.175 0 6 0C6.825 0 7.53125 0.29375 8.11875 0.88125C8.70625 1.46875 9 2.175 9 3C9 3.825 8.70625 4.53125 8.11875 5.11875C7.53125 5.70625 6.825 6 6 6ZM10.5 12H1.5C1.0875 12 0.7345 11.8533 0.441 11.5598C0.147 11.2658 0 10.9125 0 10.5V9.9C0 9.475 0.1095 9.08425 0.3285 8.72775C0.547 8.37175 0.8375 8.1 1.2 7.9125C1.975 7.525 2.7625 7.23425 3.5625 7.04025C4.3625 6.84675 5.175 6.75 6 6.75C6.825 6.75 7.6375 6.84675 8.4375 7.04025C9.2375 7.23425 10.025 7.525 10.8 7.9125C11.1625 8.1 11.453 8.37175 11.6715 8.72775C11.8905 9.08425 12 9.475 12 9.9V10.5C12 10.9125 11.8533 11.2658 11.5598 11.5598C11.2658 11.8533 10.9125 12 10.5 12ZM1.5 10.5H10.5V9.9C10.5 9.7625 10.4658 9.6375 10.3973 9.525C10.3283 9.4125 10.2375 9.325 10.125 9.2625C9.45 8.925 8.76875 8.67175 8.08125 8.50275C7.39375 8.33425 6.7 8.25 6 8.25C5.3 8.25 4.60625 8.33425 3.91875 8.50275C3.23125 8.67175 2.55 8.925 1.875 9.2625C1.7625 9.325 1.672 9.4125 1.6035 9.525C1.5345 9.6375 1.5 9.7625 1.5 9.9V10.5ZM6 4.5C6.4125 4.5 6.76575 4.353 7.05975 4.059C7.35325 3.7655 7.5 3.4125 7.5 3C7.5 2.5875 7.35325 2.2345 7.05975 1.941C6.76575 1.647 6.4125 1.5 6 1.5C5.5875 1.5 5.2345 1.647 4.941 1.941C4.647 2.2345 4.5 2.5875 4.5 3C4.5 3.4125 4.647 3.7655 4.941 4.059C5.2345 4.353 5.5875 4.5 6 4.5Z" fill="#FF00F5"/>
</svg>
