<svg width="20" height="20" viewBox="0 0 20 20" fill="none" xmlns="http://www.w3.org/2000/svg">
<rect width="19.0909" height="19.0909" rx="3.40909" fill="#13094B"/>
<path d="M11.7273 7.97729C12.5952 7.97729 13.4276 8.32209 14.0414 8.93584C14.6551 9.54958 14.9999 10.382 14.9999 11.25V15.0681H12.8181V11.25C12.8181 10.9606 12.7032 10.6832 12.4986 10.4786C12.294 10.274 12.0166 10.1591 11.7273 10.1591C11.4379 10.1591 11.1605 10.274 10.9559 10.4786C10.7513 10.6832 10.6364 10.9606 10.6364 11.25V15.0681H8.45459V11.25C8.45459 10.382 8.79939 9.54958 9.41313 8.93584C10.0269 8.32209 10.8593 7.97729 11.7273 7.97729Z" fill="white" stroke="white" stroke-width="0.681818" stroke-linecap="round" stroke-linejoin="round"/>
<path d="M6.27308 8.52295H4.09131V15.0683H6.27308V8.52295Z" fill="white" stroke="white" stroke-width="0.681818" stroke-linecap="round" stroke-linejoin="round"/>
<path d="M5.1822 6.88636C5.78468 6.88636 6.27308 6.39796 6.27308 5.79548C6.27308 5.193 5.78468 4.70459 5.1822 4.70459C4.57972 4.70459 4.09131 5.193 4.09131 5.79548C4.09131 6.39796 4.57972 6.88636 5.1822 6.88636Z" fill="white" stroke="white" stroke-width="0.681818" stroke-linecap="round" stroke-linejoin="round"/>
</svg>
