<svg width="40" height="40" viewBox="0 0 40 40" fill="none" xmlns="http://www.w3.org/2000/svg">
<path d="M31.6667 18.3335H8.33333C6.49238 18.3335 5 19.8259 5 21.6669V33.3335C5 35.1745 6.49238 36.6669 8.33333 36.6669H31.6667C33.5076 36.6669 35 35.1745 35 33.3335V21.6669C35 19.8259 33.5076 18.3335 31.6667 18.3335Z" stroke="#9E00FF" stroke-width="5" stroke-linecap="round" stroke-linejoin="round"/>
<path d="M11.667 18.3335V11.6669C11.667 9.45669 12.5449 7.33708 14.1077 5.77427C15.6705 4.21147 17.7902 3.3335 20.0003 3.3335C22.2104 3.3335 24.33 4.21147 25.8928 5.77427C27.4556 7.33708 28.3336 9.45669 28.3336 11.6669V18.3335" stroke="#9E00FF" stroke-width="5" stroke-linecap="round" stroke-linejoin="round"/>
</svg>
