<svg width="198" height="33" viewBox="0 0 198 33" fill="none" xmlns="http://www.w3.org/2000/svg">
<path fill-rule="evenodd" clip-rule="evenodd" d="M48.5518 12.8606V16.1768C50.413 16.6109 50.7545 17.0647 50.9572 19.0775C51.1251 20.7438 50.6965 22.6839 51.1112 24.2298C51.8662 27.046 54.1917 29 57.616 29C61.2063 29 62.3958 26.518 63.5854 24.1361C64.8285 21.6484 66.1237 19.329 67.3473 16.8438L72.7974 5.93342C73.2196 5.08861 74.1405 2.69087 75.0823 2.69087C79.2736 2.69087 76.8925 9.23737 78.3264 12.2691C79.0498 13.7972 79.7483 13.6742 80.388 14.6296C76.5721 15.6485 78.63 22.2877 77.3715 24.8782C76.7997 26.0553 75.6355 26.3436 73.9859 26.3565C70.7481 26.3818 67.4897 26.3468 64.2489 26.3468C63.9218 26.965 63.8808 27.1415 63.4324 27.7415C63.07 28.2264 62.7825 28.5486 62.4804 29L76.1791 28.9918C83.5288 28.4544 82.1532 20.6342 82.2455 19.5848C82.6548 14.9307 84.5889 17.3071 84.5889 15.7349C84.5889 12.0132 84.7161 13.0268 83.9358 12.629C80.4986 10.8777 83.8994 7.75074 81.428 3.1986L80.256 1.71688C77.3868 -0.826695 72.4325 -0.674652 70.5813 3.05375L60.4905 23.0306C59.9267 24.1577 58.8696 27.4366 56.6923 25.9559C53.8576 24.0281 57.0939 18.6412 53.9231 15.4486C53.4101 14.9317 53.4555 14.8171 52.7526 14.6296C53.5525 13.5375 55.0333 13.5122 55.3785 10.1811C55.8671 5.46977 55.3006 1.12161 58.362 0.491064L51.8902 2.92424C50.4204 5.38224 51.2671 8.46425 50.8358 10.7228C50.4241 12.8758 49.9781 12.1763 48.5519 12.8606H48.5518Z" fill="url(#paint0_linear_124_113)"/>
<path d="M11.9967 29.4896C10.3373 29.4896 8.77309 29.1904 7.30411 28.5919C5.86233 27.9935 4.58377 27.1093 3.46843 25.9396C2.3803 24.7699 1.52339 23.3281 0.897712 21.6143C0.299237 19.9004 0 17.9418 0 15.7383C0 12.8276 0.530466 10.3385 1.5914 8.271C2.67953 6.17633 4.14852 4.58494 5.99835 3.4968C7.87538 2.38146 9.98365 1.82379 12.3231 1.82379C13.9825 1.82379 15.4651 2.16383 16.7709 2.84392C18.0767 3.524 19.1376 4.2993 19.9537 5.16981L17.3422 8.10777C16.6893 7.42769 15.9548 6.89723 15.1387 6.51638C14.3226 6.13553 13.3841 5.94511 12.3231 5.94511C10.8542 5.94511 9.54839 6.33955 8.40585 7.12845C7.29051 7.89015 6.42 8.99189 5.79432 10.4337C5.16864 11.8754 4.85581 13.6029 4.85581 15.6159C4.85581 17.629 5.16864 19.37 5.79432 20.839C6.42 22.3079 7.30411 23.4369 8.44665 24.2258C9.5892 24.9875 10.9222 25.3683 12.4456 25.3683C13.5609 25.3683 14.5538 25.1371 15.4243 24.6746C16.2948 24.185 17.1109 23.5321 17.8726 22.716L20.4842 25.6132C19.4232 26.8645 18.1855 27.8302 16.7709 28.5103C15.3563 29.1632 13.7649 29.4896 11.9967 29.4896Z" fill="url(#paint1_linear_124_113)"/>
<path d="M34.2603 29.4896C32.1929 29.4896 30.3703 28.9456 28.7925 27.8574C27.2147 26.7693 25.9769 25.1915 25.0792 23.124C24.2087 21.0566 23.7734 18.5267 23.7734 15.5343C23.7734 12.6235 24.2087 10.148 25.0792 8.10777C25.9769 6.04032 27.2147 4.47612 28.7925 3.41519C30.3703 2.35426 32.1929 1.82379 34.2603 1.82379C36.3278 1.82379 38.1504 2.35426 39.7282 3.41519C41.306 4.47612 42.5302 6.04032 43.4007 8.10777C44.2984 10.148 44.7472 12.6235 44.7472 15.5343C44.7472 18.5267 44.2984 21.0566 43.4007 23.124C42.5302 25.1915 41.306 26.7693 39.7282 27.8574C38.1504 28.9456 36.3278 29.4896 34.2603 29.4896ZM34.2603 25.3683C35.4029 25.3683 36.3958 24.9875 37.2391 24.2258C38.0824 23.4641 38.7353 22.3488 39.1978 20.8798C39.6602 19.4108 39.8914 17.629 39.8914 15.5343C39.8914 13.494 39.6602 11.7666 39.1978 10.3521C38.7353 8.91027 38.0824 7.82214 37.2391 7.08765C36.3958 6.32595 35.4029 5.94511 34.2603 5.94511C33.1178 5.94511 32.1249 6.32595 31.2816 7.08765C30.4383 7.82214 29.7854 8.91027 29.3229 10.3521C28.8605 11.7666 28.6292 13.494 28.6292 15.5343C28.6292 17.629 28.8605 19.4108 29.3229 20.8798C29.7854 22.3488 30.4383 23.4641 31.2816 24.2258C32.1249 24.9875 33.1178 25.3683 34.2603 25.3683Z" fill="url(#paint2_linear_124_113)"/>
<path d="M89.6743 27.0606V2.0073H105.725V5.76147H94.118V12.1589H103.963V15.913H94.118V23.3064H106.108V27.0606H89.6743Z" fill="url(#paint3_linear_124_113)"/>
<path d="M122.259 27.5203C120.701 27.5203 119.233 27.2394 117.854 26.6775C116.5 26.1157 115.3 25.2857 114.253 24.1875C113.231 23.0894 112.427 21.7358 111.84 20.1269C111.278 18.518 110.997 16.6792 110.997 14.6106C110.997 11.8779 111.495 9.54117 112.491 7.60024C113.512 5.63377 114.891 4.13977 116.628 3.11823C118.39 2.07115 120.369 1.54761 122.566 1.54761C124.124 1.54761 125.515 1.86684 126.741 2.5053C127.967 3.14377 128.963 3.87161 129.729 4.68885L127.278 7.44701C126.665 6.80855 125.975 6.31055 125.209 5.95301C124.443 5.59547 123.562 5.4167 122.566 5.4167C121.187 5.4167 119.961 5.78701 118.888 6.52762C117.841 7.2427 117.024 8.27701 116.437 9.63056C115.849 10.9841 115.555 12.6058 115.555 14.4956C115.555 16.3855 115.849 18.02 116.437 19.399C117.024 20.7781 117.854 21.838 118.927 22.5786C119.999 23.2937 121.251 23.6512 122.681 23.6512C123.728 23.6512 124.66 23.4341 125.477 23C126.294 22.5403 127.061 21.9274 127.776 21.1612L130.227 23.8811C129.231 25.0558 128.069 25.9625 126.741 26.6009C125.413 27.2138 123.919 27.5203 122.259 27.5203Z" fill="url(#paint4_linear_124_113)"/>
<path d="M140.939 27.0606V5.72316H133.047V2.0073H153.274V5.72316H145.382V27.0606H140.939Z" fill="url(#paint5_linear_124_113)"/>
<path d="M157.463 26.3164C156.724 26.3164 156.1 26.0615 155.59 25.5517C155.098 25.0419 154.852 24.409 154.852 23.6531C154.852 22.8796 155.098 22.2467 155.59 21.7545C156.1 21.2447 156.724 20.9898 157.463 20.9898C158.219 20.9898 158.843 21.2447 159.335 21.7545C159.827 22.2467 160.073 22.8796 160.073 23.6531C160.073 24.409 159.827 25.0419 159.335 25.5517C158.843 26.0615 158.219 26.3164 157.463 26.3164ZM173.353 26.3164C172.14 26.3164 170.98 26.1231 169.872 25.7363C168.765 25.332 167.807 24.8573 166.998 24.3123L168.317 22.3874C169.09 22.8972 169.925 23.3015 170.822 23.6004C171.718 23.8816 172.694 24.0223 173.749 24.0223C174.645 24.0223 175.305 23.8728 175.727 23.574C176.166 23.2576 176.386 22.8884 176.386 22.4665C176.386 22.2555 176.333 22.0621 176.228 21.8863C176.14 21.7105 175.973 21.5523 175.727 21.4117C175.48 21.2535 175.12 21.104 174.645 20.9634C174.171 20.8228 173.555 20.6733 172.8 20.5151C171.077 20.1459 169.811 19.6449 169.002 19.012C168.194 18.3792 167.789 17.5793 167.789 16.6124C167.789 15.4697 168.282 14.538 169.266 13.8172C170.268 13.0964 171.674 12.7361 173.485 12.7361C174.557 12.7361 175.56 12.9119 176.491 13.2634C177.441 13.615 178.24 14.0106 178.891 14.4501L177.493 16.3223C176.878 15.9004 176.201 15.584 175.463 15.373C174.724 15.1445 173.977 15.0302 173.221 15.0302C172.641 15.0302 172.175 15.0917 171.824 15.2148C171.49 15.3379 171.235 15.5137 171.059 15.7422C170.901 15.9532 170.822 16.1905 170.822 16.4542C170.822 16.9113 171.085 17.2541 171.613 17.4826C172.14 17.7111 173.002 17.9572 174.197 18.2209C175.586 18.5198 176.658 18.8626 177.414 19.2494C178.17 19.6185 178.689 20.0492 178.97 20.5415C179.269 21.0161 179.418 21.6051 179.418 22.3082C179.418 23.0466 179.181 23.7234 178.706 24.3387C178.249 24.9364 177.572 25.4199 176.676 25.789C175.779 26.1406 174.672 26.3164 173.353 26.3164ZM189.007 26V15.4521H183.39V13.0525H192.039V26H189.007ZM190.299 10.6792C189.683 10.6792 189.165 10.4946 188.743 10.1255C188.339 9.75628 188.136 9.26405 188.136 8.64875C188.136 8.03346 188.339 7.54123 188.743 7.17205C189.165 6.7853 189.683 6.59192 190.299 6.59192C190.932 6.59192 191.45 6.7853 191.854 7.17205C192.259 7.54123 192.461 8.03346 192.461 8.64875C192.461 9.26405 192.259 9.75628 191.854 10.1255C191.45 10.4946 190.932 10.6792 190.299 10.6792Z" fill="url(#paint6_linear_124_113)"/>
<defs>
<linearGradient id="paint0_linear_124_113" x1="49" y1="15" x2="85" y2="15" gradientUnits="userSpaceOnUse">
<stop stop-color="#FF00F5"/>
<stop offset="0.513542" stop-color="#9E00FF"/>
<stop offset="1" stop-color="#00F3E5"/>
</linearGradient>
<linearGradient id="paint1_linear_124_113" x1="0" y1="16" x2="45" y2="16" gradientUnits="userSpaceOnUse">
<stop stop-color="#FF00F5"/>
<stop offset="0.482292" stop-color="#9E00FF"/>
<stop offset="1" stop-color="#00F3E5"/>
</linearGradient>
<linearGradient id="paint2_linear_124_113" x1="0" y1="16" x2="45" y2="16" gradientUnits="userSpaceOnUse">
<stop stop-color="#FF00F5"/>
<stop offset="0.482292" stop-color="#9E00FF"/>
<stop offset="1" stop-color="#00F3E5"/>
</linearGradient>
<linearGradient id="paint3_linear_124_113" x1="90" y1="15" x2="153" y2="15" gradientUnits="userSpaceOnUse">
<stop stop-color="#FF00F5"/>
<stop offset="0.523958" stop-color="#9E00FF"/>
<stop offset="1" stop-color="#00F3E5"/>
</linearGradient>
<linearGradient id="paint4_linear_124_113" x1="90" y1="15" x2="153" y2="15" gradientUnits="userSpaceOnUse">
<stop stop-color="#FF00F5"/>
<stop offset="0.523958" stop-color="#9E00FF"/>
<stop offset="1" stop-color="#00F3E5"/>
</linearGradient>
<linearGradient id="paint5_linear_124_113" x1="90" y1="15" x2="153" y2="15" gradientUnits="userSpaceOnUse">
<stop stop-color="#FF00F5"/>
<stop offset="0.523958" stop-color="#9E00FF"/>
<stop offset="1" stop-color="#00F3E5"/>
</linearGradient>
<linearGradient id="paint6_linear_124_113" x1="155" y1="17" x2="193" y2="17" gradientUnits="userSpaceOnUse">
<stop stop-color="#FF00F5"/>
<stop offset="0.523958" stop-color="#9E00FF"/>
<stop offset="1" stop-color="#00F3E5"/>
</linearGradient>
</defs>
</svg>
