<svg width="113" height="113" viewBox="0 0 113 113" fill="none" xmlns="http://www.w3.org/2000/svg">
<path fill-rule="evenodd" clip-rule="evenodd" d="M42.3528 57.6459L43.8759 55.2665L39.1173 52.2205L37.5942 54.5998L29.4024 67.3969C27.9562 66.9637 26.4233 66.7311 24.8364 66.7311C16.0577 66.7311 8.9458 73.8489 8.9458 82.6217C8.9458 91.3997 16.0584 98.5123 24.8364 98.5123C33.6169 98.5123 40.7213 91.393 40.727 82.6235L37.902 82.6217H40.727C40.727 77.4621 38.2684 72.8784 34.46 69.9759L42.3528 57.6459ZM28.845 73.1955L31.3661 74.8093L31.398 74.7593C33.6463 76.6376 35.077 79.4622 35.077 82.6217C35.0723 88.2775 30.4912 92.8623 24.8364 92.8623C19.1787 92.8623 14.5957 88.2793 14.5957 82.6217C14.5957 76.968 19.1794 72.3811 24.8364 72.3811C26.2589 72.3811 27.6138 72.6712 28.845 73.1955Z" fill="url(#paint0_linear_125_489)"/>
<path fill-rule="evenodd" clip-rule="evenodd" d="M46.2594 30.3767C46.2594 24.723 50.8431 20.1361 56.5 20.1361C62.1537 20.1361 66.7406 24.7198 66.7406 30.3767C66.7406 33.7338 65.1246 36.7149 62.6271 38.5828L61.3706 39.387C59.9226 40.1715 58.2644 40.6171 56.5017 40.6173C50.8401 40.6089 46.2594 36.0223 46.2594 30.3767ZM62.59 45.0585C60.7146 45.8374 58.6577 46.2673 56.5 46.2673H56.4963H56.4936C47.7217 46.2545 40.6094 39.1465 40.6094 30.3767C40.6094 21.604 47.7213 14.4861 56.5 14.4861C65.2728 14.4861 72.3906 21.598 72.3906 30.3767C72.3906 34.9624 70.4475 39.0959 67.3387 41.9971L75.4056 54.5992L76.9287 56.9785L72.1701 60.0245L70.6472 57.6453L62.59 45.0585Z" fill="url(#paint1_linear_125_489)"/>
<path fill-rule="evenodd" clip-rule="evenodd" d="M77.9274 82.6216C77.9274 76.9679 82.511 72.381 88.1681 72.381C93.8216 72.381 98.4087 76.9645 98.4087 82.6216C98.4087 88.2751 93.825 92.8622 88.1681 92.8622C82.5063 92.8622 77.9274 88.2799 77.9274 82.6216ZM72.529 85.4546C73.8638 92.88 80.3523 98.5122 88.1681 98.5122C96.9467 98.5122 104.059 91.3942 104.059 82.6216C104.059 73.8428 96.9407 66.731 88.1681 66.731C80.3511 66.731 73.8559 72.3745 72.5263 79.8046H56.4998H53.6748V85.4546H56.4998H72.529Z" fill="url(#paint2_linear_125_489)"/>
<defs>
<linearGradient id="paint0_linear_125_489" x1="14.1248" y1="98.8751" x2="35.0699" y2="50.5115" gradientUnits="userSpaceOnUse">
<stop stop-color="#FF00F5"/>
<stop offset="1" stop-color="#FF00F5" stop-opacity="0.25"/>
</linearGradient>
<linearGradient id="paint1_linear_125_489" x1="58.769" y1="14.4861" x2="58.769" y2="60.0245" gradientUnits="userSpaceOnUse">
<stop stop-color="white"/>
<stop offset="1" stop-color="white" stop-opacity="0.25"/>
</linearGradient>
<linearGradient id="paint2_linear_125_489" x1="104.525" y1="81.9249" x2="53.6748" y2="81.9249" gradientUnits="userSpaceOnUse">
<stop stop-color="#00F3E5"/>
<stop offset="1" stop-color="#00F3E5" stop-opacity="0.25"/>
</linearGradient>
</defs>
</svg>
