<svg width="250" height="204" viewBox="0 0 250 204" fill="none" xmlns="http://www.w3.org/2000/svg">
<path d="M250 163.7H0V163.825H250V163.7Z" fill="#EBEBEB"/>
<path d="M224.95 171.745H208.39V171.87H224.95V171.745Z" fill="#EBEBEB"/>
<path d="M165.61 173.105H161.265V173.23H165.61V173.105Z" fill="#EBEBEB"/>
<path d="M207.89 167.105H198.295V167.23H207.89V167.105Z" fill="#EBEBEB"/>
<path d="M47.825 167.945H26.23V168.07H47.825V167.945Z" fill="#EBEBEB"/>
<path d="M55.445 167.945H52.28V168.07H55.445V167.945Z" fill="#EBEBEB"/>
<path d="M112.575 170.055H65.735V170.18H112.575V170.055Z" fill="#EBEBEB"/>
<path d="M118.5 141.4H21.955C21.1987 141.399 20.4738 141.097 19.9395 140.562C19.4051 140.027 19.105 139.301 19.105 138.545V2.83C19.1116 2.07801 19.4146 1.35899 19.9482 0.829109C20.4819 0.299229 21.203 0.00128819 21.955 0H118.5C119.257 0 119.983 0.300794 120.519 0.83621C121.054 1.37163 121.355 2.09781 121.355 2.855V138.545C121.355 139.302 121.054 140.028 120.519 140.564C119.983 141.099 119.257 141.4 118.5 141.4V141.4ZM21.955 0.1C21.2318 0.101325 20.5387 0.389533 20.0278 0.901363C19.5169 1.41319 19.23 2.10682 19.23 2.83V138.545C19.23 139.268 19.5169 139.962 20.0278 140.474C20.5387 140.985 21.2318 141.274 21.955 141.275H118.5C119.224 141.274 119.917 140.986 120.429 140.474C120.941 139.962 121.229 139.269 121.23 138.545V2.83C121.229 2.10636 120.941 1.41275 120.429 0.901058C119.917 0.38937 119.224 0.101322 118.5 0.1H21.955Z" fill="#EBEBEB"/>
<path d="M226.655 141.4H130.105C129.348 141.399 128.623 141.097 128.088 140.562C127.553 140.027 127.251 139.302 127.25 138.545V2.83C127.258 2.07756 127.562 1.35854 128.096 0.828796C128.631 0.299054 129.353 0.00127414 130.105 0H226.655C227.406 0.00260225 228.126 0.301125 228.659 0.830864C229.191 1.3606 229.493 2.07888 229.5 2.83V138.545C229.5 139.3 229.201 140.025 228.667 140.56C228.134 141.095 227.41 141.397 226.655 141.4V141.4ZM130.105 0.1C129.381 0.101322 128.688 0.38937 128.176 0.901058C127.664 1.41275 127.376 2.10636 127.375 2.83V138.545C127.376 139.269 127.664 139.962 128.176 140.474C128.688 140.986 129.381 141.274 130.105 141.275H226.655C227.379 141.274 228.072 140.986 228.584 140.474C229.096 139.962 229.384 139.269 229.385 138.545V2.83C229.384 2.10636 229.096 1.41275 228.584 0.901058C228.072 0.38937 227.379 0.101322 226.655 0.1H130.105Z" fill="#EBEBEB"/>
<path d="M99.615 126.895H95.4H92.62L100.41 133.345H101.84H103.115L101.295 130.58L106.605 133.345H107.885H109.395L99.615 126.895Z" fill="#E0E0E0"/>
<path d="M44.375 133.345H47.165L53.36 130.12L50.655 133.345H53.36L61.15 126.895H54.155L44.375 133.345Z" fill="#E0E0E0"/>
<path d="M51.925 133.345L58.37 126.895H54.155L44.375 133.345H45.885L53.36 129.235L50.655 133.345H51.925Z" fill="#F0F0F0"/>
<path d="M30.13 133.345V163.935H124.34V133.345H30.13ZM122.8 145.345H47.165V135.345H122.8V145.345Z" fill="#E0E0E0"/>
<path d="M45.105 133.345V163.935H124.34V133.345H45.105ZM122.8 145.345H47.165V135.345H122.8V145.345Z" fill="#EBEBEB"/>
<path d="M122.8 135.33H109.01V145.325H122.8V135.33Z" fill="#E0E0E0"/>
<path d="M67.135 140.325H47.165V145.325H67.135V140.325Z" fill="#E0E0E0"/>
<path d="M81.235 142.355H68.39V145.325H81.235V142.355Z" fill="#E0E0E0"/>
<path d="M99.35 139.25H84.205V145.325H99.35V139.25Z" fill="#E0E0E0"/>
<path d="M62.2 147.5L61.835 148.695H56.92L56.555 147.5H47.165V160.775H71.59V147.5H62.2Z" fill="#E0E0E0"/>
<path d="M87.77 147.5L87.405 148.695H82.495L82.13 147.5H72.735V160.775H97.165V147.5H87.77Z" fill="#E0E0E0"/>
<path d="M113.345 147.5L112.98 148.695H108.07L107.7 147.5H98.31V160.775H122.735V147.5H113.345Z" fill="#E0E0E0"/>
<path d="M107.745 86.405H42.85C41.8752 86.405 41.085 87.1952 41.085 88.17V125.985C41.085 126.96 41.8752 127.75 42.85 127.75H107.745C108.72 127.75 109.51 126.96 109.51 125.985V88.17C109.51 87.1952 108.72 86.405 107.745 86.405Z" fill="#E0E0E0"/>
<path d="M109.355 86.405H44.46C43.4852 86.405 42.695 87.1952 42.695 88.17V125.985C42.695 126.96 43.4852 127.75 44.46 127.75H109.355C110.33 127.75 111.12 126.96 111.12 125.985V88.17C111.12 87.1952 110.33 86.405 109.355 86.405Z" fill="#E6E6E6"/>
<path d="M109.105 125.74V88.415H44.7V125.74H109.105Z" fill="#F0F0F0"/>
<path d="M188.48 40.7783C193.551 39.4962 196.622 34.3464 195.34 29.2758C194.058 24.2053 188.908 21.1341 183.837 22.4162C178.767 23.6983 175.696 28.8482 176.978 33.9187C178.26 38.9893 183.41 42.0604 188.48 40.7783Z" fill="#E0E0E0"/>
<path d="M193.983 33.4297C195.004 29.1027 192.324 24.767 187.997 23.7458C183.67 22.7245 179.334 25.4043 178.313 29.7313C177.292 34.0583 179.972 38.394 184.299 39.4152C188.626 40.4365 192.961 37.7567 193.983 33.4297Z" fill="#F0F0F0"/>
<path d="M185.78 26.065V31.69L182.05 29.58" fill="#F0F0F0"/>
<path d="M185.78 32.19C185.692 32.1906 185.606 32.1682 185.53 32.125L181.8 30C181.686 29.934 181.602 29.8255 181.567 29.6981C181.533 29.5707 181.55 29.4348 181.615 29.32C181.68 29.2048 181.788 29.1201 181.916 29.0845C182.043 29.0489 182.18 29.0652 182.295 29.13L185.295 30.82V26.05C185.295 25.9174 185.348 25.7902 185.441 25.6964C185.535 25.6027 185.662 25.55 185.795 25.55C185.928 25.55 186.055 25.6027 186.149 25.6964C186.242 25.7902 186.295 25.9174 186.295 26.05V31.675C186.295 31.8076 186.242 31.9348 186.149 32.0286C186.055 32.1223 185.928 32.175 185.795 32.175L185.78 32.19Z" fill="#E0E0E0"/>
<path d="M57.185 31.62C57.185 31.62 56.725 28.62 58.925 26.675C61.125 24.73 60.925 23.595 60.3 23.445C59.675 23.295 59.095 25.225 58.13 25.755C58.13 25.755 58.095 23.005 59.08 21.99C60.065 20.975 60.58 18.365 59.64 18.32C58.7 18.275 58.61 19.87 58.42 21C58.1542 21.9692 57.7374 22.8905 57.185 23.73C57.185 23.73 56.98 21.265 56.345 20.23C55.71 19.195 57.405 16.9 56.75 15.885C56.095 14.87 54.94 16.805 55.035 18.975C55.13 21.145 56.585 23.475 56.245 25.735C56.245 25.735 55.605 24.145 55.03 24C54.455 23.855 53.88 22.8 53.49 22.41C53.1 22.02 52.625 23.37 53.49 24.625C54.355 25.88 56.585 29.24 56.245 31.955L57.185 31.62Z" fill="#E6E6E6"/>
<path d="M58.5 30.25L59.215 34.75C59.2679 35.0777 59.2489 35.413 59.1594 35.7327C59.0699 36.0523 58.9119 36.3487 58.6964 36.6013C58.481 36.8538 58.2132 37.0565 57.9117 37.1953C57.6101 37.3341 57.282 37.4056 56.95 37.405H56.185C55.8529 37.4055 55.5246 37.3339 55.2229 37.1952C54.9211 37.0564 54.6531 36.8538 54.4372 36.6014C54.2214 36.349 54.063 36.0527 53.9728 35.7331C53.8826 35.4134 53.8629 35.078 53.915 34.75L54.635 30.25H58.5Z" fill="#E6E6E6"/>
<path d="M47.615 38.365L98.475 38.365V35.75L47.615 35.75V38.365Z" fill="#E0E0E0"/>
<path d="M93.895 35.755H96.135V26.125H93.895V35.755Z" fill="#EBEBEB"/>
<path d="M83.06 35.755H85.3V26.125H83.06V35.755Z" fill="#EBEBEB"/>
<path d="M69.1266 35.3742L71.334 35.7547L72.9707 26.2597L70.7632 25.8792L69.1266 35.3742Z" fill="#EBEBEB"/>
<path d="M91.115 35.755H93.355V27.39H91.115V35.755Z" fill="#EBEBEB"/>
<path d="M85.97 35.755H88.21V27.39H85.97V35.755Z" fill="#EBEBEB"/>
<path d="M72.965 35.755H75.205V27.39H72.965V35.755Z" fill="#EBEBEB"/>
<path d="M78.3074 35.2638L80.494 35.7498L82.3088 27.584L80.1222 27.098L78.3074 35.2638Z" fill="#EBEBEB"/>
<path d="M89.18 35.755H90.3V25.645H89.18V35.755Z" fill="#EBEBEB"/>
<path d="M75.855 35.755H76.975V25.645H75.855V35.755Z" fill="#EBEBEB"/>
<path d="M98.475 55.26H47.615V57.875H98.475V55.26Z" fill="#E0E0E0"/>
<path d="M52.195 45.63H49.955V55.265H52.195V45.63Z" fill="#EBEBEB"/>
<path d="M63.03 45.63H60.79V55.265H63.03V45.63Z" fill="#EBEBEB"/>
<path d="M75.33 45.3862L73.1226 45.7667L74.7592 55.2616L76.9667 54.8811L75.33 45.3862Z" fill="#EBEBEB"/>
<path d="M54.975 46.9H52.735V55.265H54.975V46.9Z" fill="#EBEBEB"/>
<path d="M60.125 46.9H57.885V55.265H60.125V46.9Z" fill="#EBEBEB"/>
<path d="M73.12 46.9H70.88V55.265H73.12V46.9Z" fill="#EBEBEB"/>
<path d="M65.9762 46.6063L63.7895 47.0923L65.6043 55.2581L67.791 54.7721L65.9762 46.6063Z" fill="#EBEBEB"/>
<path d="M56.91 45.15H55.79V55.26H56.91V45.15Z" fill="#EBEBEB"/>
<path d="M70.24 45.15H69.12V55.26H70.24V45.15Z" fill="#EBEBEB"/>
<path d="M93.6 47.64H82.68V55.175H93.6V47.64Z" fill="#EBEBEB"/>
<path d="M125 186.28C178.541 186.28 221.945 183.746 221.945 180.62C221.945 177.494 178.541 174.96 125 174.96C71.4587 174.96 28.055 177.494 28.055 180.62C28.055 183.746 71.4587 186.28 125 186.28Z" fill="#F5F5F5"/>
<path d="M45.275 162.07C45.275 161.92 44.775 147.07 42.37 144.745C40.06 142.505 37.4 144.665 37.285 144.745L36.965 144.36C36.995 144.335 40.085 141.815 42.715 144.36C45.26 146.83 45.755 161.405 45.775 162.025L45.275 162.07Z" fill="#407BFF"/>
<path d="M45.5 165C45.43 164.27 43.845 147.13 50.31 139.705L50.69 140.035C44.35 147.29 45.965 164.77 46 164.945L45.5 165Z" fill="#407BFF"/>
<path d="M45.365 163.125L44.865 163.09C44.865 162.89 46.13 143.035 41.415 138.705L41.755 138.335C46.64 142.83 45.42 162.295 45.365 163.125Z" fill="#407BFF"/>
<path d="M46 163.11H45.5C45.5 162.56 45.655 149.645 49.345 147.53C49.7003 147.301 50.1054 147.159 50.5265 147.119C50.9475 147.078 51.3721 147.138 51.765 147.295C54.005 148.225 55.11 152.19 55.155 152.355L54.655 152.49C54.655 152.45 53.57 148.59 51.56 147.76C51.2353 147.628 50.8832 147.578 50.5345 147.614C50.1858 147.649 49.8513 147.77 49.56 147.965C46.135 149.93 46 163 46 163.11Z" fill="#407BFF"/>
<path d="M44.555 163.12L44.055 163.09C44.055 162.99 44.605 152.935 41.9 149.4C41.25 148.56 40.555 148.155 39.82 148.21C38.07 148.33 36.59 150.91 36.58 150.935L36.14 150.69C36.21 150.575 37.765 147.85 39.785 147.69C40.695 147.625 41.54 148.09 42.285 149.08C45.12 152.78 44.58 162.7 44.555 163.12Z" fill="#407BFF"/>
<path d="M45.03 164.5C44.96 163.5 43.255 140.5 46.265 136.41L46.665 136.71C43.765 140.635 45.515 164.21 45.53 164.46L45.03 164.5Z" fill="#407BFF"/>
<path d="M52.54 149.68C52.54 149.68 50.745 150.345 51.28 151.91C51.815 153.475 57.5 156.05 57.5 156.05C57.5 156.05 59.88 153.865 57.695 150.315C55.51 146.765 52.59 148.56 52.54 149.68Z" fill="#407BFF"/>
<path opacity="0.2" d="M52.54 149.68C52.54 149.68 50.745 150.345 51.28 151.91C51.815 153.475 57.5 156.05 57.5 156.05C57.5 156.05 59.88 153.865 57.695 150.315C55.51 146.765 52.59 148.56 52.54 149.68Z" fill="white"/>
<path d="M44.725 146.7C44.725 146.7 46.64 146.62 46.725 148.27C46.81 149.92 42.6 154.5 42.6 154.5C42.6 154.5 39.56 153.405 40.21 149.285C40.86 145.165 44.245 145.685 44.725 146.7Z" fill="#407BFF"/>
<path opacity="0.2" d="M44.725 146.7C44.725 146.7 46.64 146.62 46.725 148.27C46.81 149.92 42.6 154.5 42.6 154.5C42.6 154.5 39.56 153.405 40.21 149.285C40.86 145.165 44.245 145.685 44.725 146.7Z" fill="white"/>
<path d="M43.1 138.8C43.1 138.8 44.38 138.66 44.275 137.885C44.17 137.11 39.31 135.105 36.445 138.34C36.445 138.34 38.28 141.495 40.945 141.535C43.61 141.575 43.1 138.8 43.1 138.8Z" fill="#407BFF"/>
<path opacity="0.2" d="M43.1 138.8C43.1 138.8 44.38 138.66 44.275 137.885C44.17 137.11 39.31 135.105 36.445 138.34C36.445 138.34 38.28 141.495 40.945 141.535C43.61 141.575 43.1 138.8 43.1 138.8Z" fill="white"/>
<path d="M45.5 136.91C45.5 136.91 44.345 137.47 44 136.755C43.655 136.04 46.745 131.755 50.89 133C50.89 133 51 136.65 48.77 138.09C46.54 139.53 45.5 136.91 45.5 136.91Z" fill="#407BFF"/>
<path opacity="0.2" d="M45.5 136.91C45.5 136.91 44.345 137.47 44 136.755C43.655 136.04 46.745 131.755 50.89 133C50.89 133 51 136.65 48.77 138.09C46.54 139.53 45.5 136.91 45.5 136.91Z" fill="white"/>
<path d="M39.435 149.05C39.435 149.05 40.315 148.34 39.365 147.99C38.415 147.64 33.745 147.745 33.7 152.365C33.7 152.365 39.135 153.27 39.805 151.51C40.475 149.75 39.435 149.05 39.435 149.05Z" fill="#407BFF"/>
<path opacity="0.2" d="M39.435 149.05C39.435 149.05 40.315 148.34 39.365 147.99C38.415 147.64 33.745 147.745 33.7 152.365C33.7 152.365 39.135 153.27 39.805 151.51C40.475 149.75 39.435 149.05 39.435 149.05Z" fill="white"/>
<path d="M50.5 138.685C50.5 138.685 49.615 137.97 50.57 137.625C51.525 137.28 56.185 137.375 56.235 142C56.235 142 50.8 142.9 50.125 141.14C49.45 139.38 50.5 138.685 50.5 138.685Z" fill="#407BFF"/>
<path opacity="0.2" d="M50.5 138.685C50.5 138.685 49.615 137.97 50.57 137.625C51.525 137.28 56.185 137.375 56.235 142C56.235 142 50.8 142.9 50.125 141.14C49.45 139.38 50.5 138.685 50.5 138.685Z" fill="white"/>
<path d="M47.645 142.405C47.645 142.405 47.565 141.54 48.265 141.88C48.965 142.22 51.395 144.845 48.875 147.335C48.875 147.335 45.48 144.835 46.09 143.51C46.7 142.185 47.645 142.405 47.645 142.405Z" fill="#407BFF"/>
<path opacity="0.2" d="M47.645 142.405C47.645 142.405 47.565 141.54 48.265 141.88C48.965 142.22 51.395 144.845 48.875 147.335C48.875 147.335 45.48 144.835 46.09 143.51C46.7 142.185 47.645 142.405 47.645 142.405Z" fill="white"/>
<path d="M38.645 143.64C38.645 143.64 39.175 142.95 38.4 142.865C37.625 142.78 34.175 143.7 35 147.15C35 147.15 39.21 146.835 39.39 145.4C39.57 143.965 38.645 143.64 38.645 143.64Z" fill="#407BFF"/>
<path opacity="0.2" d="M38.645 143.64C38.645 143.64 39.175 142.95 38.4 142.865C37.625 142.78 34.175 143.7 35 147.15C35 147.15 39.21 146.835 39.39 145.4C39.57 143.965 38.645 143.64 38.645 143.64Z" fill="white"/>
<path d="M52.88 175.92H38.425L36.865 160.095H54.435L52.88 175.92Z" fill="#407BFF"/>
<path opacity="0.5" d="M52.88 175.92H38.425L36.865 160.095H54.435L52.88 175.92Z" fill="white"/>
<path d="M55.21 158.35H36.095V161.84H55.21V158.35Z" fill="#407BFF"/>
<path opacity="0.2" d="M55.21 158.35H36.095V161.84H55.21V158.35Z" fill="white"/>
<path d="M170.01 175.92L170.04 175.735L170.885 165.845H174.49L171.915 175.92" fill="#263238"/>
<path d="M203.37 175.92L203.34 175.735L202.49 165.845H198.89L201.465 175.92" fill="#263238"/>
<path d="M165.26 175.92L165.29 175.735L166.93 165.845H170.53L167.165 175.92" fill="#263238"/>
<path d="M208.12 175.92L208.085 175.735L206.45 165.845H202.85L206.215 175.92" fill="#263238"/>
<g opacity="0.2">
<path opacity="0.2" d="M165.26 175.92L165.29 175.735L166.93 165.845H170.53L167.165 175.92" fill="white"/>
<path opacity="0.2" d="M208.12 175.92L208.085 175.735L206.45 165.845H202.85L206.215 175.92" fill="white"/>
</g>
<path d="M208.39 106.645H164.995C163.896 106.645 163.005 107.536 163.005 108.635V166.06C163.005 167.159 163.896 168.05 164.995 168.05H208.39C209.489 168.05 210.38 167.159 210.38 166.06V108.635C210.38 107.536 209.489 106.645 208.39 106.645Z" fill="#407BFF"/>
<path opacity="0.4" d="M208.39 106.645H164.995C163.896 106.645 163.005 107.536 163.005 108.635V166.06C163.005 167.159 163.896 168.05 164.995 168.05H208.39C209.489 168.05 210.38 167.159 210.38 166.06V108.635C210.38 107.536 209.489 106.645 208.39 106.645Z" fill="white"/>
<path opacity="0.5" d="M208.445 120.035H164.935V142.2H208.445V120.035Z" fill="white"/>
<path opacity="0.5" d="M208.445 143.675H164.935V165.84H208.445V143.675Z" fill="white"/>
<path opacity="0.5" d="M208.445 108.85H164.935V118.555H208.445V108.85Z" fill="white"/>
<path opacity="0.5" d="M190.25 110.465H183.13C182.917 110.464 182.708 110.404 182.527 110.29C182.346 110.177 182.2 110.016 182.105 109.825L181.63 108.85H191.75L191.25 109.825C191.159 110.014 191.017 110.173 190.84 110.286C190.664 110.399 190.46 110.461 190.25 110.465Z" fill="black"/>
<path opacity="0.5" d="M190.25 121.645H183.13C182.916 121.645 182.707 121.585 182.526 121.472C182.344 121.359 182.199 121.197 182.105 121.005L181.63 120.035H191.75L191.25 121.005C191.16 121.194 191.018 121.355 190.841 121.468C190.665 121.581 190.46 121.642 190.25 121.645V121.645Z" fill="black"/>
<path opacity="0.5" d="M190.25 145.29H183.13C182.916 145.29 182.707 145.23 182.526 145.117C182.344 145.004 182.199 144.842 182.105 144.65L181.63 143.675H191.75L191.25 144.65C191.16 144.839 191.018 145 190.841 145.113C190.665 145.226 190.46 145.287 190.25 145.29V145.29Z" fill="black"/>
<path d="M199.345 99.87L203.105 106.645H198.425L199.345 99.87Z" fill="#407BFF"/>
<path opacity="0.2" d="M199.345 99.87L203.105 106.645H198.425L199.345 99.87Z" fill="black"/>
<path d="M200.6 106.645H191.75L194.52 95.18H203.37L200.6 106.645Z" fill="#407BFF"/>
<path opacity="0.5" d="M192.97 105.735L195.3 96.09H202.15L199.82 105.735H192.97Z" fill="white"/>
<path d="M174.705 101.425L172.51 106.645H178.38L174.705 101.425Z" fill="#407BFF"/>
<path d="M186.69 106.645H175.45L172.81 98.5H184.055L186.69 106.645Z" fill="#407BFF"/>
<path opacity="0.2" d="M186.69 106.645H175.45L172.81 98.5H184.055L186.69 106.645Z" fill="white"/>
<path opacity="0.5" d="M176.07 105.47L174.19 99.675H183.435L185.31 105.47H176.07Z" fill="white"/>
<path d="M136.615 45.395H64.78C61.9081 45.395 59.58 47.7231 59.58 50.595V178.11C59.58 180.982 61.9081 183.31 64.78 183.31H136.615C139.487 183.31 141.815 180.982 141.815 178.11V50.595C141.815 47.7231 139.487 45.395 136.615 45.395Z" fill="#263238"/>
<path d="M139.04 50.35V178.09C139.04 178.356 138.987 178.62 138.884 178.866C138.78 179.112 138.629 179.334 138.438 179.52C138.248 179.707 138.022 179.853 137.774 179.951C137.526 180.049 137.261 180.096 136.995 180.09H64.18C63.9377 180.093 63.6972 180.048 63.4729 179.956C63.2486 179.864 63.0452 179.728 62.8747 179.556C62.7043 179.384 62.5704 179.179 62.4811 178.954C62.3918 178.728 62.3489 178.487 62.355 178.245V50.185C62.3456 49.971 62.3788 49.7573 62.4526 49.5562C62.5264 49.355 62.6393 49.1706 62.7848 49.0134C62.9304 48.8562 63.1056 48.7295 63.3005 48.6405C63.4953 48.5515 63.7059 48.5021 63.92 48.495H82.125C82.3787 48.5002 82.6252 48.5803 82.8334 48.7253C83.0416 48.8704 83.2022 49.0738 83.295 49.31L84.05 51.17C84.1424 51.406 84.3031 51.6091 84.5115 51.7534C84.7199 51.8977 84.9666 51.9766 85.22 51.98H116.22C116.473 51.9787 116.719 51.9018 116.928 51.7592C117.136 51.6167 117.297 51.4149 117.39 51.18L118.145 49.315C118.237 49.0779 118.397 48.8734 118.606 48.7274C118.814 48.5814 119.061 48.5006 119.315 48.495H137.26C137.741 48.5094 138.196 48.7118 138.529 49.0587C138.862 49.4056 139.045 49.8693 139.04 50.35V50.35Z" fill="#407BFF"/>
<path opacity="0.3" d="M139.04 50.35V178.09C139.04 178.356 138.987 178.62 138.884 178.866C138.78 179.112 138.629 179.334 138.438 179.52C138.248 179.707 138.022 179.853 137.774 179.951C137.526 180.049 137.261 180.096 136.995 180.09H64.18C63.9377 180.093 63.6972 180.048 63.4729 179.956C63.2486 179.864 63.0452 179.728 62.8747 179.556C62.7043 179.384 62.5704 179.179 62.4811 178.954C62.3918 178.728 62.3489 178.487 62.355 178.245V50.185C62.3456 49.971 62.3788 49.7573 62.4526 49.5562C62.5264 49.355 62.6393 49.1706 62.7848 49.0134C62.9304 48.8562 63.1056 48.7295 63.3005 48.6405C63.4953 48.5515 63.7059 48.5021 63.92 48.495H82.125C82.3787 48.5002 82.6252 48.5803 82.8334 48.7253C83.0416 48.8704 83.2022 49.0738 83.295 49.31L84.05 51.17C84.1424 51.406 84.3031 51.6091 84.5115 51.7534C84.7199 51.8977 84.9666 51.9766 85.22 51.98H116.22C116.473 51.9787 116.719 51.9018 116.928 51.7592C117.136 51.6167 117.297 51.4149 117.39 51.18L118.145 49.315C118.237 49.0779 118.397 48.8734 118.606 48.7274C118.814 48.5814 119.061 48.5006 119.315 48.495H137.26C137.741 48.5094 138.196 48.7118 138.529 49.0587C138.862 49.4056 139.045 49.8693 139.04 50.35V50.35Z" fill="black"/>
<path opacity="0.6" d="M139.04 57.1H62.355V170.705H139.04V57.1Z" fill="white"/>
<path opacity="0.6" d="M70.81 54.045H71.755V52.78H70.81V54.045Z" fill="white"/>
<path opacity="0.6" d="M69.265 54.045H70.21V52.36H69.265V54.045Z" fill="white"/>
<path opacity="0.6" d="M67.72 54.045H68.665V51.94H67.72V54.045Z" fill="white"/>
<path opacity="0.6" d="M66.175 54.045H67.12V51.52H66.175V54.045Z" fill="white"/>
<path opacity="0.6" d="M130.36 52.32H129.8V53.585H130.36V52.32Z" fill="white"/>
<path opacity="0.6" d="M130.745 54.045H135.22V51.86H130.745V54.045Z" fill="white"/>
<path opacity="0.6" d="M100.685 48.675C100.685 48.8837 100.623 49.0876 100.507 49.2611C100.391 49.4346 100.227 49.5698 100.034 49.6497C99.841 49.7295 99.6288 49.7504 99.4242 49.7097C99.2195 49.669 99.0316 49.5685 98.884 49.421C98.7365 49.2734 98.636 49.0855 98.5953 48.8808C98.5546 48.6762 98.5755 48.464 98.6553 48.2713C98.7352 48.0785 98.8704 47.9137 99.0439 47.7978C99.2174 47.6819 99.4214 47.62 99.63 47.62C99.7687 47.6193 99.9062 47.6462 100.035 47.699C100.163 47.7517 100.279 47.8294 100.377 47.9275C100.476 48.0256 100.553 48.1422 100.606 48.2705C100.659 48.3988 100.686 48.5363 100.685 48.675Z" fill="white"/>
<path opacity="0.6" d="M102.815 48.675C102.815 48.8085 102.775 48.939 102.701 49.05C102.627 49.161 102.522 49.2475 102.398 49.2986C102.275 49.3497 102.139 49.3631 102.008 49.337C101.877 49.311 101.757 49.2467 101.663 49.1523C101.568 49.0579 101.504 48.9376 101.478 48.8067C101.452 48.6757 101.465 48.54 101.516 48.4167C101.567 48.2933 101.654 48.1879 101.765 48.1138C101.876 48.0396 102.007 48 102.14 48C102.319 48 102.491 48.0711 102.617 48.1977C102.744 48.3243 102.815 48.496 102.815 48.675Z" fill="white"/>
<path d="M139.04 57.1H62.355V70.215H139.04V57.1Z" fill="#407BFF"/>
<path d="M135.785 64.73V63.73H134.895C134.838 63.4759 134.736 63.2338 134.595 63.015L135.225 62.385L134.5 61.66L133.87 62.29C133.651 62.1511 133.409 62.0513 133.155 61.995V61.105H132.155V62C131.902 62.0573 131.66 62.157 131.44 62.295L130.81 61.665L130.1 62.38L130.73 63.01C130.589 63.2288 130.487 63.4709 130.43 63.725H129.54V64.725H130.43C130.488 64.9773 130.59 65.2175 130.73 65.435L130.1 66.065L130.81 66.78L131.44 66.15C131.661 66.2875 131.902 66.3887 132.155 66.45V67.335H133.155V66.45C133.408 66.3897 133.65 66.2883 133.87 66.15L134.5 66.78L135.21 66.065L134.58 65.435C134.72 65.2175 134.822 64.9773 134.88 64.725L135.785 64.73ZM132.665 65.155C132.48 65.155 132.299 65.1 132.145 64.9971C131.991 64.8941 131.871 64.7478 131.801 64.5766C131.73 64.4055 131.712 64.2173 131.748 64.0357C131.785 63.8542 131.874 63.6876 132.006 63.5571C132.137 63.4265 132.304 63.3379 132.486 63.3024C132.667 63.2668 132.856 63.2861 133.026 63.3576C133.197 63.4291 133.343 63.5498 133.445 63.7042C133.547 63.8586 133.601 64.0399 133.6 64.225C133.6 64.3475 133.576 64.4689 133.529 64.5821C133.482 64.6952 133.413 64.798 133.326 64.8844C133.239 64.9708 133.136 65.0392 133.022 65.0856C132.909 65.1321 132.788 65.1557 132.665 65.155Z" fill="white"/>
<path d="M68.985 61.47L65.61 64.675H66.655V66.975H71.315V64.675H72.355L68.985 61.47Z" fill="white"/>
<path opacity="0.4" d="M114.945 92.235C114.948 95.0542 114.115 97.811 112.55 100.156C110.986 102.502 108.761 104.331 106.157 105.411C103.554 106.492 100.688 106.776 97.9223 106.228C95.157 105.679 92.6165 104.323 90.6223 102.33C88.6281 100.337 87.2698 97.7975 86.7193 95.0325C86.1688 92.2675 86.4509 89.4014 87.5297 86.7968C88.6086 84.1921 90.4358 81.966 92.7802 80.4002C95.1246 78.8343 97.8808 77.999 100.7 78C102.571 77.9967 104.424 78.3626 106.153 79.0767C107.882 79.7908 109.453 80.839 110.777 82.1614C112.1 83.4838 113.149 85.0542 113.865 86.7829C114.58 88.5115 114.947 90.3642 114.945 92.235V92.235Z" fill="black"/>
<path opacity="0.8" d="M111.47 101.565C110.132 103.109 108.478 104.347 106.62 105.196C104.762 106.045 102.743 106.484 100.7 106.484C98.6572 106.484 96.6382 106.045 94.78 105.196C92.9217 104.347 91.2677 103.109 89.93 101.565C90.446 99.7148 91.4296 98.0286 92.786 96.6686C94.1425 95.3086 95.8262 94.3207 97.675 93.8C96.6864 93.1497 95.9338 92.1979 95.5292 91.0859C95.1245 89.9739 95.0892 88.761 95.4286 87.6274C95.768 86.4938 96.464 85.4999 97.4132 84.7932C98.3624 84.0866 99.5142 83.7049 100.698 83.7049C101.881 83.7049 103.033 84.0866 103.982 84.7932C104.931 85.4999 105.627 86.4938 105.966 87.6274C106.306 88.761 106.271 89.9739 105.866 91.0859C105.461 92.1979 104.709 93.1497 103.72 93.8C105.569 94.3213 107.253 95.3093 108.61 96.6691C109.968 98.0289 110.952 99.7149 111.47 101.565V101.565Z" fill="white"/>
<g opacity="0.5">
<path opacity="0.5" d="M73.95 114.94V115.2H72.425V113.1H73.925V113.36H72.745V114H73.8V114.255H72.745V114.935L73.95 114.94Z" fill="black"/>
<path opacity="0.5" d="M74.23 114.25H75.04V114.5H74.23V114.25Z" fill="black"/>
<path opacity="0.5" d="M78.12 114.285V115.2H77.835V114.32C77.835 114.005 77.685 113.855 77.425 113.855C77.3555 113.848 77.2853 113.857 77.2198 113.882C77.1543 113.906 77.0952 113.945 77.047 113.996C76.9988 114.046 76.9627 114.107 76.9416 114.174C76.9205 114.24 76.9148 114.311 76.925 114.38V115.2H76.64V114.32C76.64 114.005 76.49 113.855 76.225 113.855C76.1554 113.848 76.0853 113.857 76.0198 113.882C75.9542 113.906 75.8952 113.945 75.847 113.996C75.7988 114.046 75.7627 114.107 75.7416 114.174C75.7205 114.24 75.7148 114.311 75.725 114.38V115.2H75.5V113.61H75.775V113.85C75.837 113.765 75.9195 113.697 76.0148 113.653C76.1101 113.608 76.215 113.588 76.32 113.595C76.4309 113.587 76.5419 113.61 76.6401 113.662C76.7382 113.715 76.8197 113.794 76.875 113.89C76.9444 113.794 77.0364 113.717 77.1428 113.666C77.2493 113.614 77.3669 113.59 77.485 113.595C77.5744 113.591 77.6636 113.606 77.7465 113.64C77.8293 113.674 77.9036 113.725 77.9642 113.791C78.0248 113.857 78.0702 113.935 78.0971 114.021C78.124 114.106 78.1318 114.196 78.12 114.285V114.285Z" fill="black"/>
<path opacity="0.5" d="M79.915 114.24V115.2H79.64V115C79.5816 115.076 79.5056 115.137 79.4185 115.177C79.3314 115.217 79.2358 115.235 79.14 115.23C78.78 115.23 78.55 115.035 78.55 114.76C78.55 114.485 78.715 114.295 79.19 114.295H79.645V114.24C79.645 113.995 79.505 113.855 79.22 113.855C79.039 113.854 78.863 113.914 78.72 114.025L78.6 113.81C78.7887 113.669 79.0197 113.597 79.255 113.605C79.665 113.595 79.915 113.805 79.915 114.24ZM79.625 114.715V114.5H79.18C78.895 114.5 78.815 114.615 78.815 114.75C78.815 114.885 78.945 115.005 79.165 115.005C79.2624 115.011 79.3593 114.986 79.4418 114.934C79.5244 114.882 79.5885 114.805 79.625 114.715Z" fill="black"/>
<path opacity="0.5" d="M80.395 113.12C80.395 113.095 80.4001 113.07 80.41 113.046C80.4198 113.023 80.4343 113.002 80.4524 112.984C80.4706 112.966 80.4921 112.952 80.5158 112.943C80.5394 112.934 80.5647 112.929 80.59 112.93C80.6274 112.931 80.6636 112.943 80.6942 112.964C80.7248 112.986 80.7483 113.016 80.762 113.051C80.7756 113.085 80.7786 113.124 80.7707 113.16C80.7629 113.197 80.7444 113.23 80.7176 113.256C80.6909 113.282 80.657 113.3 80.6203 113.307C80.5836 113.314 80.5456 113.31 80.5112 113.295C80.4768 113.281 80.4474 113.256 80.4267 113.225C80.4061 113.194 80.395 113.157 80.395 113.12V113.12ZM80.45 113.62H80.735V115.21H80.45V113.62Z" fill="black"/>
<path opacity="0.5" d="M81.285 113H81.57V115.225H81.285V113Z" fill="black"/>
</g>
<g opacity="0.8">
<path opacity="0.8" d="M125.525 125.595H75.87C74.8728 125.595 73.9164 125.199 73.2113 124.494C72.5062 123.789 72.11 122.832 72.11 121.835V121.835C72.11 120.838 72.5062 119.881 73.2113 119.176C73.9164 118.471 74.8728 118.075 75.87 118.075H125.525C126.522 118.075 127.479 118.471 128.184 119.176C128.889 119.881 129.285 120.838 129.285 121.835V121.835C129.285 122.832 128.889 123.789 128.184 124.494C127.479 125.199 126.522 125.595 125.525 125.595V125.595Z" fill="white"/>
</g>
<g opacity="0.5">
<path opacity="0.5" d="M74.12 132.335C74.12 132.79 73.79 133.065 73.245 133.065H72.745V133.7H72.445V131.6H73.265C73.79 131.6 74.12 131.875 74.12 132.335ZM73.82 132.335C73.82 132.035 73.62 131.86 73.235 131.86H72.735V132.805H73.235C73.62 132.805 73.82 132.63 73.82 132.335V132.335Z" fill="black"/>
<path opacity="0.5" d="M75.765 132.74V133.7H75.5V133.5C75.4419 133.576 75.3659 133.637 75.2787 133.677C75.1915 133.718 75.0958 133.736 75 133.73C74.64 133.73 74.41 133.535 74.41 133.26C74.41 132.985 74.575 132.795 75.05 132.795H75.5V132.74C75.5 132.495 75.36 132.355 75.075 132.355C74.894 132.354 74.718 132.414 74.575 132.525L74.455 132.31C74.6456 132.169 74.8782 132.097 75.115 132.105C75.5 132.095 75.765 132.305 75.765 132.74ZM75.475 133.215V133H75.03C74.745 133 74.665 133.115 74.665 133.25C74.665 133.385 74.8 133.505 75.015 133.505C75.1166 133.518 75.2194 133.496 75.3073 133.443C75.3951 133.391 75.4629 133.31 75.5 133.215H75.475Z" fill="black"/>
<path opacity="0.5" d="M76.1 133.53L76.22 133.305C76.3847 133.414 76.5778 133.471 76.775 133.47C77.04 133.47 77.155 133.39 77.155 133.255C77.155 132.895 76.155 133.205 76.155 132.57C76.155 132.29 76.41 132.095 76.815 132.095C77.0177 132.092 77.2177 132.142 77.395 132.24L77.27 132.465C77.1335 132.38 76.9755 132.337 76.815 132.34C76.56 132.34 76.44 132.435 76.44 132.56C76.44 132.935 77.44 132.63 77.44 133.245C77.44 133.535 77.175 133.72 76.755 133.72C76.5224 133.725 76.2937 133.659 76.1 133.53V133.53Z" fill="black"/>
<path opacity="0.5" d="M77.6 133.53L77.72 133.305C77.8869 133.413 78.0813 133.47 78.28 133.47C78.545 133.47 78.655 133.39 78.655 133.255C78.655 132.895 77.655 133.205 77.655 132.57C77.655 132.29 77.91 132.095 78.32 132.095C78.5226 132.092 78.7225 132.142 78.9 132.24L78.775 132.465C78.6364 132.381 78.477 132.338 78.315 132.34C78.065 132.34 77.94 132.435 77.94 132.56C77.94 132.935 78.94 132.63 78.94 133.245C78.94 133.535 78.675 133.72 78.25 133.72C78.0191 133.724 77.7926 133.657 77.6 133.53V133.53Z" fill="black"/>
<path opacity="0.5" d="M81.68 132.11L81.085 133.7H80.81L80.35 132.5L79.885 133.705H79.61L79 132.11H79.27L79.735 133.375L80.235 132.11H80.5L81 133.38L81.47 132.11H81.68Z" fill="black"/>
<path opacity="0.5" d="M81.78 132.905C81.778 132.741 81.8247 132.581 81.9142 132.444C82.0036 132.307 82.1318 132.2 82.2823 132.136C82.4329 132.072 82.5991 132.054 82.7598 132.085C82.9204 132.115 83.0684 132.193 83.1848 132.308C83.3011 132.423 83.3807 132.57 83.4134 132.73C83.446 132.891 83.4303 133.057 83.3681 133.208C83.306 133.36 83.2003 133.489 83.0644 133.58C82.9285 133.671 82.7686 133.72 82.605 133.72C82.4962 133.725 82.3876 133.707 82.286 133.668C82.1843 133.629 82.0919 133.569 82.0144 133.493C81.9369 133.416 81.8761 133.325 81.8358 133.223C81.7955 133.122 81.7765 133.014 81.78 132.905V132.905ZM83.14 132.905C83.14 132.835 83.1262 132.765 83.0993 132.7C83.0724 132.635 83.033 132.576 82.9833 132.527C82.9336 132.477 82.8747 132.438 82.8098 132.411C82.7449 132.384 82.6753 132.37 82.605 132.37C82.5348 132.37 82.4652 132.384 82.4003 132.411C82.3354 132.438 82.2764 132.477 82.2267 132.527C82.177 132.576 82.1376 132.635 82.1107 132.7C82.0839 132.765 82.07 132.835 82.07 132.905C82.07 132.975 82.0839 133.045 82.1107 133.11C82.1376 133.175 82.177 133.234 82.2267 133.283C82.2764 133.333 82.3354 133.372 82.4003 133.399C82.4652 133.426 82.5348 133.44 82.605 133.44C82.6753 133.44 82.7449 133.426 82.8098 133.399C82.8747 133.372 82.9336 133.333 82.9833 133.283C83.033 133.234 83.0724 133.175 83.0993 133.11C83.1262 133.045 83.14 132.975 83.14 132.905V132.905Z" fill="black"/>
<path opacity="0.5" d="M84.685 132.095V132.375H84.62C84.5509 132.375 84.4824 132.389 84.419 132.417C84.3555 132.444 84.2985 132.485 84.2515 132.535C84.2045 132.586 84.1686 132.646 84.146 132.711C84.1233 132.777 84.1145 132.846 84.12 132.915V133.705H83.83V132.115H84.105V132.38C84.1653 132.283 84.2516 132.205 84.3542 132.154C84.4567 132.104 84.5713 132.083 84.685 132.095Z" fill="black"/>
<path opacity="0.5" d="M86.525 131.5V133.725H86.25V133.475C86.1842 133.563 86.0978 133.634 85.9985 133.681C85.8992 133.728 85.7898 133.75 85.68 133.745C85.4755 133.729 85.2846 133.636 85.1454 133.486C85.0061 133.335 84.9288 133.138 84.9288 132.932C84.9288 132.727 85.0061 132.53 85.1454 132.379C85.2846 132.229 85.4755 132.136 85.68 132.12C85.7861 132.116 85.8916 132.137 85.988 132.181C86.0844 132.225 86.1691 132.292 86.235 132.375V131.5H86.525ZM86.24 132.93C86.2351 132.825 86.1996 132.725 86.138 132.64C86.0763 132.555 85.9911 132.491 85.893 132.454C85.7949 132.417 85.6882 132.41 85.5862 132.434C85.4841 132.457 85.3911 132.51 85.3188 132.585C85.2464 132.661 85.1979 132.756 85.1792 132.859C85.1605 132.963 85.1725 133.069 85.2136 133.165C85.2547 133.261 85.3232 133.344 85.4105 133.401C85.4979 133.459 85.6003 133.49 85.705 133.49C85.7813 133.497 85.8582 133.485 85.9295 133.458C86.0009 133.43 86.0649 133.386 86.1166 133.329C86.1683 133.273 86.2063 133.205 86.2277 133.132C86.2491 133.058 86.2533 132.98 86.24 132.905V132.93Z" fill="black"/>
</g>
<g opacity="0.8">
<path opacity="0.8" d="M125.525 144.095H75.87C74.8728 144.095 73.9164 143.699 73.2113 142.994C72.5062 142.289 72.11 141.332 72.11 140.335V140.335C72.11 139.338 72.5062 138.381 73.2113 137.676C73.9164 136.971 74.8728 136.575 75.87 136.575H125.525C126.522 136.575 127.479 136.971 128.184 137.676C128.889 138.381 129.285 139.338 129.285 140.335V140.335C129.285 141.332 128.889 142.289 128.184 142.994C127.479 143.699 126.522 144.095 125.525 144.095V144.095Z" fill="white"/>
</g>
<path d="M113.025 159.595H88.37C87.8762 159.595 87.3873 159.498 86.9311 159.309C86.4749 159.12 86.0604 158.843 85.7113 158.494C85.3621 158.145 85.0852 157.73 84.8962 157.274C84.7073 156.818 84.61 156.329 84.61 155.835V155.835C84.61 155.341 84.7073 154.852 84.8962 154.396C85.0852 153.94 85.3621 153.525 85.7113 153.176C86.0604 152.827 86.4749 152.55 86.9311 152.361C87.3873 152.172 87.8762 152.075 88.37 152.075H113.025C114.022 152.075 114.979 152.471 115.684 153.176C116.389 153.881 116.785 154.838 116.785 155.835V155.835C116.785 156.832 116.389 157.789 115.684 158.494C114.979 159.199 114.022 159.595 113.025 159.595V159.595Z" fill="#407BFF"/>
<path d="M95.8991 161.29C95.4527 161.29 95.0204 161.222 94.6023 161.086C94.1898 160.945 93.8649 160.764 93.6275 160.544L93.9412 159.883C94.1672 160.086 94.4554 160.253 94.8057 160.383C95.1617 160.507 95.5262 160.569 95.8991 160.569C96.3907 160.569 96.758 160.487 97.001 160.324C97.244 160.154 97.3655 159.931 97.3655 159.654C97.3655 159.45 97.2977 159.287 97.1621 159.162C97.0321 159.032 96.8682 158.933 96.6704 158.866C96.4783 158.798 96.2043 158.722 95.8483 158.637C95.4019 158.529 95.0402 158.422 94.7633 158.315C94.4921 158.207 94.2576 158.043 94.0598 157.823C93.8677 157.597 93.7716 157.295 93.7716 156.916C93.7716 156.6 93.8536 156.314 94.0174 156.06C94.187 155.806 94.4412 155.602 94.7803 155.45C95.1193 155.297 95.5403 155.221 96.0432 155.221C96.3936 155.221 96.7383 155.266 97.0773 155.357C97.4163 155.447 97.7074 155.577 97.9503 155.746L97.6706 156.425C97.422 156.266 97.1564 156.148 96.8739 156.069C96.5913 155.984 96.3145 155.941 96.0432 155.941C95.5629 155.941 95.2013 156.029 94.9583 156.204C94.721 156.379 94.6023 156.605 94.6023 156.882C94.6023 157.086 94.6701 157.252 94.8057 157.382C94.9413 157.507 95.108 157.606 95.3058 157.679C95.5092 157.747 95.7833 157.82 96.128 157.899C96.5744 158.007 96.9332 158.114 97.2044 158.221C97.4757 158.329 97.7074 158.493 97.8995 158.713C98.0973 158.933 98.1961 159.23 98.1961 159.603C98.1961 159.914 98.1114 160.199 97.9419 160.459C97.7723 160.713 97.5152 160.917 97.1705 161.069C96.8258 161.216 96.402 161.29 95.8991 161.29ZM99.3158 156.73H100.129V161.222H99.3158V156.73ZM99.7226 155.865C99.5644 155.865 99.4316 155.814 99.3242 155.713C99.2225 155.611 99.1717 155.487 99.1717 155.34C99.1717 155.193 99.2225 155.068 99.3242 154.967C99.4316 154.859 99.5644 154.806 99.7226 154.806C99.8808 154.806 100.011 154.856 100.113 154.958C100.22 155.054 100.274 155.176 100.274 155.323C100.274 155.475 100.22 155.605 100.113 155.713C100.011 155.814 99.8808 155.865 99.7226 155.865ZM105.98 156.73V160.612C105.98 161.397 105.786 161.976 105.396 162.349C105.006 162.728 104.424 162.917 103.65 162.917C103.226 162.917 102.822 162.858 102.437 162.739C102.053 162.626 101.742 162.462 101.505 162.248L101.895 161.62C102.104 161.801 102.361 161.942 102.666 162.044C102.977 162.152 103.296 162.205 103.624 162.205C104.15 162.205 104.537 162.081 104.785 161.832C105.04 161.584 105.167 161.205 105.167 160.696V160.34C104.975 160.572 104.737 160.747 104.455 160.866C104.178 160.979 103.876 161.035 103.548 161.035C103.118 161.035 102.728 160.945 102.378 160.764C102.033 160.578 101.762 160.321 101.564 159.993C101.367 159.66 101.268 159.281 101.268 158.857C101.268 158.433 101.367 158.058 101.564 157.73C101.762 157.396 102.033 157.139 102.378 156.959C102.728 156.778 103.118 156.687 103.548 156.687C103.887 156.687 104.2 156.749 104.489 156.874C104.783 156.998 105.023 157.182 105.209 157.425V156.73H105.98ZM103.641 160.324C103.935 160.324 104.198 160.261 104.429 160.137C104.667 160.013 104.85 159.84 104.98 159.62C105.116 159.394 105.184 159.14 105.184 158.857C105.184 158.422 105.04 158.072 104.751 157.806C104.463 157.535 104.093 157.399 103.641 157.399C103.183 157.399 102.81 157.535 102.522 157.806C102.234 158.072 102.09 158.422 102.09 158.857C102.09 159.14 102.155 159.394 102.285 159.62C102.421 159.84 102.604 160.013 102.836 160.137C103.073 160.261 103.342 160.324 103.641 160.324ZM109.934 156.687C110.505 156.687 110.957 156.854 111.29 157.187C111.629 157.515 111.799 157.998 111.799 158.637V161.222H110.985V158.73C110.985 158.295 110.88 157.967 110.671 157.747C110.462 157.526 110.163 157.416 109.773 157.416C109.332 157.416 108.985 157.546 108.73 157.806C108.476 158.06 108.349 158.428 108.349 158.908V161.222H107.535V156.73H108.315V157.408C108.479 157.176 108.699 156.998 108.976 156.874C109.259 156.749 109.578 156.687 109.934 156.687ZM115.581 156.73H116.395V161.222H115.581V156.73ZM115.988 155.865C115.829 155.865 115.697 155.814 115.589 155.713C115.488 155.611 115.437 155.487 115.437 155.34C115.437 155.193 115.488 155.068 115.589 154.967C115.697 154.859 115.829 154.806 115.988 154.806C116.146 154.806 116.276 154.856 116.378 154.958C116.485 155.054 116.539 155.176 116.539 155.323C116.539 155.475 116.485 155.605 116.378 155.713C116.276 155.814 116.146 155.865 115.988 155.865ZM120.347 156.687C120.918 156.687 121.37 156.854 121.703 157.187C122.042 157.515 122.212 157.998 122.212 158.637V161.222H121.398V158.73C121.398 158.295 121.293 157.967 121.084 157.747C120.875 157.526 120.576 157.416 120.186 157.416C119.745 157.416 119.398 157.546 119.143 157.806C118.889 158.06 118.762 158.428 118.762 158.908V161.222H117.948V156.73H118.728V157.408C118.892 157.176 119.112 156.998 119.389 156.874C119.672 156.749 119.991 156.687 120.347 156.687Z" fill="white"/>
<path d="M190.05 64.96L168.58 64.76C168.09 64.7534 167.623 64.5528 167.281 64.2023C166.939 63.8517 166.75 63.3798 166.755 62.89L166.96 56.415C166.963 56.1727 167.013 55.9333 167.108 55.7105C167.203 55.4876 167.341 55.2857 167.514 55.1162C167.688 54.9467 167.893 54.8131 168.117 54.7228C168.342 54.6325 168.583 54.5874 168.825 54.59L190.325 54.795C190.815 54.8016 191.282 55.0022 191.624 55.3527C191.966 55.7033 192.155 56.1752 192.15 56.665L191.945 63.14C191.942 63.3846 191.891 63.6263 191.794 63.8509C191.697 64.0755 191.556 64.2784 191.38 64.4479C191.203 64.6174 190.995 64.7499 190.766 64.8379C190.538 64.9258 190.295 64.9673 190.05 64.96V64.96Z" fill="#407BFF"/>
<path d="M179 63.325C179 63.325 176.28 69.325 170.33 71.16C170.33 71.16 173.63 69.31 173.46 63.005L179 63.325Z" fill="#407BFF"/>
<path d="M172.325 59.7L172.825 59.98L172.595 60.365L172.095 60.055V60.625H171.655V60.055L171.155 60.365L170.93 59.98L171.43 59.7L170.93 59.42L171.155 59.035L171.655 59.345V58.77H172.095V59.345L172.595 59.035L172.825 59.42L172.325 59.7Z" fill="white"/>
<path d="M175.395 59.7L175.895 59.98L175.665 60.365L175.165 60.055V60.625H174.725V60.055L174.225 60.365L174 60L174.5 59.72L174 59.44L174.23 59.055L174.73 59.365V58.79H175.17V59.365L175.67 59.055L175.9 59.44L175.395 59.7Z" fill="white"/>
<path d="M178.47 59.7L178.97 59.98L178.74 60.365L178.24 60.055V60.625H177.795V60.055L177.295 60.365L177.07 59.98L177.57 59.7L177.07 59.42L177.295 59.035L177.795 59.345V58.77H178.24V59.345L178.74 59.035L178.97 59.42L178.47 59.7Z" fill="white"/>
<path d="M181.54 59.7L182.04 59.98L181.81 60.365L181.31 60.055V60.625H180.87V60.055L180.37 60.365L180.145 59.98L180.645 59.7L180.145 59.42L180.37 59.035L180.87 59.345V58.77H181.31V59.345L181.81 59.035L182.04 59.42L181.54 59.7Z" fill="white"/>
<path d="M184.61 59.7L185.11 59.98L184.88 60.365L184.38 60.055V60.625H183.94V60.055L183.44 60.365L183.21 59.98L183.71 59.7L183.21 59.42L183.44 59.035L183.94 59.345V58.77H184.38V59.345L184.88 59.035L185.11 59.42L184.61 59.7Z" fill="white"/>
<path d="M187.685 59.7L188.185 59.98L187.955 60.365L187.455 60.055V60.625H187V60.055L186.5 60.365L186.275 59.98L186.775 59.7L186.275 59.42L186.5 59.035L187 59.345V58.77H187.445V59.345L187.945 59.035L188.175 59.42L187.685 59.7Z" fill="white"/>
<path d="M156.07 75.5C158.93 75.945 161.705 84.755 162.91 85.5C164.115 86.245 163.08 77.25 163.08 77.25L165.37 76.945C165.37 76.945 168.08 90.505 164.125 90.405C161.125 90.33 157.525 85.295 156.625 82.73L156.07 75.5Z" fill="#EBB376"/>
<path opacity="0.1" d="M164.125 90.37C162.3 90.325 160.255 88.45 158.735 86.41C157.866 85.2768 157.162 84.026 156.645 82.695L156.35 78.995L156.07 75.495C158.93 75.94 161.705 84.75 162.91 85.495C164.115 86.24 163.08 77.245 163.08 77.245L165.37 76.94C165.37 76.94 168.08 90.47 164.125 90.37Z" fill="black"/>
<path opacity="0.2" d="M158.735 86.41C157.866 85.2768 157.162 84.026 156.645 82.695L156.35 78.995C156.35 78.995 159.47 82.135 158.735 86.41Z" fill="black"/>
<path d="M145.54 57.28C145.54 57.28 140.445 57.22 140.69 64.225C140.935 71.23 145.835 71.325 144.19 73.35C145.651 73.9697 147.223 74.289 148.81 74.289C150.397 74.289 151.969 73.9697 153.43 73.35C153.43 73.35 152.525 72.995 152.955 71.71C153.385 70.425 155.745 68.585 155.955 65.875C156.165 63.165 150.81 56.58 145.54 57.28Z" fill="#263238"/>
<path d="M150.575 70.69C150.575 70.69 157.075 69.485 155.99 63.305C155.1 58.24 152.735 56.615 150.575 55.89C149.645 55.5766 148.637 55.576 147.707 55.8883C146.776 56.2007 145.973 56.8088 145.42 57.62C145.42 57.62 141.01 56.37 141.775 63.62C142.54 70.87 147.33 74 150.575 70.69Z" fill="#263238"/>
<path d="M162.425 174.245L159.535 172.765L160.585 168.445L161.555 164.49L165.195 165.68L163.73 170.215L162.425 174.245Z" fill="#EBB376"/>
<path d="M158.73 172.085C158.9 171.765 162.78 174.015 162.78 174.015C162.78 174.015 163.995 177.75 166.11 179.515C168.225 181.28 166.17 182.04 163.495 180.71L156.875 177.41C155 176.455 156.97 175.425 158.73 172.085Z" fill="#263238"/>
<path d="M164.095 175.915C163.675 175.575 163.297 175.186 162.97 174.755C162.967 174.743 162.967 174.732 162.97 174.72C162.968 174.705 162.968 174.69 162.97 174.675V174.675C162.968 174.665 162.968 174.655 162.97 174.645V174.645C162.974 174.627 162.985 174.611 163 174.6C163.035 174.565 163.835 173.8 164.5 173.845C164.598 173.852 164.693 173.879 164.779 173.926C164.866 173.972 164.941 174.037 165 174.115C165.063 174.173 165.106 174.25 165.123 174.335C165.14 174.419 165.131 174.507 165.095 174.585C164.975 174.79 164.595 174.855 164.175 174.87C164.504 174.968 164.798 175.157 165.025 175.415C165.063 175.469 165.089 175.53 165.102 175.595C165.115 175.659 165.115 175.726 165.1 175.79C165.045 176.06 164.9 176.145 164.79 176.17C164.663 176.178 164.535 176.159 164.416 176.115C164.296 176.071 164.187 176.003 164.095 175.915V175.915ZM163.37 174.87C163.835 175.415 164.46 176.005 164.725 175.94C164.75 175.94 164.82 175.94 164.855 175.745C164.862 175.71 164.862 175.675 164.854 175.64C164.847 175.606 164.832 175.573 164.81 175.545C164.605 175.235 163.865 175 163.37 174.87ZM164.7 174.165C164.628 174.113 164.543 174.084 164.455 174.08C164.04 174.124 163.649 174.299 163.34 174.58C164.045 174.65 164.775 174.62 164.875 174.445C164.905 174.39 164.84 174.295 164.795 174.24C164.767 174.211 164.735 174.185 164.7 174.165V174.165Z" fill="#407BFF"/>
<path opacity="0.2" d="M163.695 170.305L160.555 168.53L161.535 164.53L165.19 165.7L163.695 170.305Z" fill="black"/>
<path d="M157.325 177.855H154.02L153.075 173.605L152.215 169.71L156.08 169.12L156.74 173.745L157.325 177.855Z" fill="#EBB376"/>
<path d="M152.93 177.725C152.93 177.36 157.43 177.645 157.43 177.645C157.43 177.645 160.185 180.445 162.86 181.075C165.535 181.705 164.04 183.31 161.05 183.31H153.635C151.5 183.31 152.84 181.5 152.93 177.725Z" fill="#263238"/>
<path d="M159.765 178.79C159.119 178.71 158.491 178.518 157.91 178.225L157.87 178.195V178.17C157.86 178.139 157.86 178.106 157.87 178.075C157.87 178.035 158.265 176.99 158.87 176.735C158.961 176.693 159.06 176.671 159.16 176.671C159.26 176.671 159.359 176.693 159.45 176.735C159.655 176.835 159.75 176.96 159.745 177.115C159.745 177.35 159.41 177.585 159.045 177.78C159.382 177.719 159.729 177.757 160.045 177.89C160.103 177.922 160.154 177.965 160.195 178.016C160.236 178.068 160.267 178.127 160.285 178.19C160.322 178.274 160.331 178.368 160.311 178.458C160.292 178.548 160.244 178.629 160.175 178.69C160.054 178.77 159.909 178.806 159.765 178.79ZM158.32 178.15C158.98 178.425 159.82 178.675 160.01 178.5C160.01 178.5 160.085 178.44 160.04 178.265C160.032 178.232 160.016 178.2 159.995 178.174C159.973 178.147 159.946 178.125 159.915 178.11C159.59 177.92 158.825 178.035 158.32 178.15ZM159.12 176.915C159.058 176.916 158.997 176.93 158.94 176.955C158.589 177.186 158.319 177.522 158.17 177.915C158.835 177.665 159.475 177.315 159.485 177.115C159.485 177.05 159.39 176.995 159.33 176.965C159.265 176.932 159.193 176.915 159.12 176.915V176.915Z" fill="#407BFF"/>
<path opacity="0.2" d="M156.75 173.84L153.085 173.69L152.22 169.75L156.085 169.14L156.75 173.84Z" fill="black"/>
<path d="M141.21 100.07L149.325 98.77L156.68 97.27L158.68 109.27C158.68 109.27 169.035 124.27 171.545 134.59C174.055 144.91 164.64 168.85 164.64 168.85L160.315 166.935C160.315 166.935 163.315 143.91 163.245 141.145C163.2 139.345 157.295 131.045 153.165 125.45C153.045 126.855 154.385 140.86 154.385 140.86L157.3 171.56H151.85C133.11 113.365 141.21 100.07 141.21 100.07Z" fill="#263238"/>
<path opacity="0.6" d="M151.85 171.54H157.28L154.365 140.84C154.365 140.84 153.035 126.74 153.145 125.43C153.96 126.535 154.845 127.74 155.74 128.985C159.375 134.04 163.19 139.675 163.24 141.12C163.31 143.89 160.31 166.915 160.31 166.915L164.635 168.83C164.635 168.83 174.05 144.88 171.54 134.565C169.03 124.25 158.675 109.25 158.675 109.25L156.675 97.25L149.32 98.75L141.205 100.05C141.205 100.05 133.11 113.365 151.85 171.54Z" fill="white"/>
<path d="M160.07 164.98L166.455 167.18L165.03 169.37L159.785 167.495L160.07 164.98Z" fill="#407BFF"/>
<path d="M151.07 170.805L157.9 169.87L157.56 172.42L151.92 173.13L151.07 170.805Z" fill="#407BFF"/>
<path opacity="0.2" d="M153.145 125.43C153.96 126.535 154.845 127.74 155.74 128.985C154.31 121.575 152.625 114.36 152.625 114.36C152.411 118.058 152.586 121.768 153.145 125.43V125.43Z" fill="black"/>
<path d="M156.535 97.74L141.73 98.765C141.73 98.765 141.53 90.835 140.35 86.71C140.19 86.155 140.015 85.575 139.82 84.955C139.545 84.085 139.23 83.15 138.87 82.13C138.785 81.89 138.57 81.29 138.31 80.595C138.104 80.0403 138.063 79.4379 138.192 78.8605C138.321 78.283 138.613 77.755 139.035 77.34C139.446 76.9288 139.967 76.6457 140.535 76.525C141.625 76.285 142.7 76.06 143.285 75.97C145.503 75.6181 147.741 75.4061 149.985 75.335C151.885 75.335 153.985 75.445 155.185 75.53L156.225 75.61C156.225 75.61 156.695 75.715 156.995 78.47C157.265 81.06 157.135 88.32 156.535 97.74Z" fill="#407BFF"/>
<path d="M149.5 78.5C145.765 77.825 144.715 76.165 144.715 76.165C147.215 74.035 145.435 70.035 145.435 70.035L149.935 71.11C149.797 71.734 149.705 72.3674 149.66 73.005C149.485 75.75 150.725 75.84 150.725 75.84C151.41 77.345 149.5 78.5 149.5 78.5Z" fill="#EBB376"/>
<path opacity="0.2" d="M149.9 71.085C149.762 71.709 149.67 72.3424 149.625 72.98C147.47 72.365 145.42 70.01 145.42 70.01L149.9 71.085Z" fill="black"/>
<path d="M149.57 58.26C153.495 58.615 154.57 60.83 154.495 64.905C154.4 69.995 152.955 73.49 148.14 71.965C141.6 69.9 143.045 57.675 149.57 58.26Z" fill="#EBB376"/>
<path d="M152 64.455C152.262 65.0714 152.598 65.6539 153 66.19C152.87 66.3411 152.701 66.4536 152.511 66.5153C152.322 66.577 152.119 66.5855 151.925 66.54L152 64.455Z" fill="#D58745"/>
<path d="M149.6 63.92C149.6 64.24 149.385 64.49 149.17 64.48C148.955 64.47 148.8 64.19 148.82 63.865C148.84 63.54 149.035 63.295 149.25 63.305C149.465 63.315 149.62 63.595 149.6 63.92Z" fill="#263238"/>
<path d="M149.155 63.315L149.88 63.085C149.88 63.085 149.5 63.655 149.155 63.315Z" fill="#263238"/>
<path d="M153.625 64.12C153.6 64.44 153.41 64.69 153.195 64.675C152.98 64.66 152.82 64.39 152.845 64.065C152.87 63.74 153.055 63.49 153.275 63.505C153.495 63.52 153.645 63.795 153.625 64.12Z" fill="#263238"/>
<path d="M153.18 63.5L153.905 63.27C153.905 63.27 153.5 63.855 153.18 63.5Z" fill="#263238"/>
<path d="M148.045 61.825C147.999 61.8237 147.954 61.806 147.92 61.775C147.887 61.7398 147.869 61.6933 147.869 61.645C147.869 61.5967 147.887 61.5502 147.92 61.515C148.181 61.288 148.491 61.1246 148.826 61.0379C149.161 60.9511 149.512 60.9433 149.85 61.015C149.873 61.0203 149.895 61.03 149.915 61.0438C149.934 61.0576 149.951 61.0751 149.964 61.0953C149.977 61.1155 149.985 61.138 149.989 61.1615C149.993 61.1851 149.993 61.2092 149.987 61.2325C149.982 61.2558 149.972 61.2779 149.959 61.2974C149.945 61.3169 149.927 61.3335 149.907 61.3463C149.887 61.3591 149.864 61.3677 149.841 61.3718C149.817 61.3759 149.793 61.3753 149.77 61.37C149.493 61.3109 149.206 61.3153 148.93 61.3828C148.655 61.4504 148.398 61.5793 148.18 61.76C148.163 61.7799 148.143 61.796 148.12 61.8072C148.096 61.8184 148.071 61.8245 148.045 61.825V61.825Z" fill="#263238"/>
<path d="M154.21 61.94C154.168 61.9389 154.128 61.925 154.095 61.9C153.914 61.7281 153.696 61.5999 153.457 61.5254C153.219 61.4509 152.967 61.4319 152.72 61.47C152.674 61.4808 152.625 61.4733 152.584 61.4491C152.543 61.4249 152.513 61.3858 152.5 61.34C152.488 61.2943 152.494 61.2455 152.517 61.2043C152.541 61.1631 152.579 61.1329 152.625 61.12C152.928 61.0671 153.239 61.0847 153.533 61.1715C153.828 61.2582 154.099 61.4117 154.325 61.62C154.344 61.635 154.359 61.6535 154.37 61.6745C154.381 61.6955 154.388 61.7185 154.391 61.7423C154.393 61.766 154.391 61.7899 154.384 61.8127C154.377 61.8355 154.365 61.8567 154.35 61.875C154.333 61.8958 154.312 61.9125 154.288 61.9238C154.263 61.935 154.237 61.9406 154.21 61.94V61.94Z" fill="#263238"/>
<path d="M144.68 64.5C144.68 64.5 146.805 61.435 146.75 58.92C146.75 58.92 154.82 56.42 154.495 64.375C154.495 64.375 155.885 57.43 149.15 56.665C142.415 55.9 141.55 65.785 144.775 69.04C144.775 69.035 143.36 66.41 144.68 64.5Z" fill="#263238"/>
<path d="M145.245 65.38C145.247 65.1535 145.204 64.9288 145.119 64.7187C145.035 64.5087 144.909 64.3174 144.75 64.1558C144.592 63.9943 144.403 63.8655 144.194 63.777C143.985 63.6885 143.762 63.642 143.535 63.64C142.305 63.665 141.5 66.11 144.475 66.985C144.9 67.11 145.185 66.705 145.245 65.38Z" fill="#EBB376"/>
<path d="M151.545 68.37C151.066 68.3937 150.592 68.2599 150.195 67.9891C149.799 67.7182 149.502 67.3253 149.35 66.87C149.343 66.848 149.34 66.8249 149.342 66.8019C149.344 66.7789 149.351 66.7565 149.362 66.7361C149.372 66.7156 149.387 66.6975 149.405 66.6827C149.422 66.668 149.443 66.6568 149.465 66.65C149.488 66.6431 149.511 66.6407 149.535 66.6429C149.559 66.6452 149.581 66.6521 149.602 66.6633C149.623 66.6744 149.642 66.6896 149.657 66.7079C149.672 66.7262 149.683 66.7473 149.69 66.77C149.823 67.1655 150.085 67.5048 150.434 67.7333C150.783 67.9619 151.199 68.0664 151.615 68.03C151.662 68.0272 151.708 68.043 151.744 68.0738C151.779 68.1046 151.801 68.1481 151.805 68.195C151.808 68.242 151.792 68.2881 151.761 68.3236C151.73 68.3591 151.687 68.3812 151.64 68.385L151.545 68.37Z" fill="#263238"/>
<path d="M154.435 63.265C154.397 63.2647 154.36 63.2525 154.33 63.23C154.299 63.2076 154.277 63.1761 154.265 63.14C152.735 58.14 146.875 58.92 146.82 58.93C146.797 58.9333 146.774 58.932 146.751 58.9262C146.729 58.9205 146.708 58.9104 146.689 58.8964C146.67 58.8825 146.655 58.865 146.643 58.8451C146.631 58.8251 146.623 58.803 146.62 58.78C146.617 58.757 146.618 58.7336 146.624 58.7111C146.63 58.6886 146.64 58.6675 146.654 58.6489C146.668 58.6304 146.685 58.6147 146.705 58.6029C146.725 58.5911 146.747 58.5833 146.77 58.58C146.83 58.58 152.985 57.755 154.605 63.035C154.612 63.0573 154.614 63.0808 154.612 63.104C154.61 63.1273 154.603 63.1498 154.591 63.1703C154.58 63.1908 154.565 63.2089 154.547 63.2234C154.528 63.238 154.507 63.2487 154.485 63.255L154.435 63.265Z" fill="#263238"/>
<path d="M164.6 71.71C164.6 71.71 166.665 71.675 166.735 72.035C166.805 72.395 166.67 75.42 166.395 75.845C166.095 76.2291 165.751 76.5765 165.37 76.88L165.57 82.24L164.34 82.67L163.225 77.765C163.225 77.765 161.96 76.53 162.33 74.965C162.7 73.4 164.6 71.71 164.6 71.71Z" fill="#EBB376"/>
<path opacity="0.1" d="M164.6 71.71C164.6 71.71 166.665 71.675 166.735 72.035C166.805 72.395 166.67 75.42 166.395 75.845C166.095 76.2291 165.751 76.5765 165.37 76.88L165.57 82.24L164.34 82.67L163.225 77.765C163.225 77.765 161.96 76.53 162.33 74.965C162.7 73.4 164.6 71.71 164.6 71.71Z" fill="black"/>
<path d="M161.095 74.35C161.093 74.3948 161.101 74.4395 161.118 74.481C161.135 74.5226 161.161 74.56 161.194 74.5907C161.226 74.6215 161.265 74.6449 161.308 74.6595C161.35 74.674 161.395 74.6793 161.44 74.675L164.94 74.405C165.037 74.3956 165.128 74.3516 165.196 74.281C165.264 74.2104 165.304 74.1178 165.31 74.02L165.56 67.02C165.563 66.9721 165.556 66.9242 165.539 66.8792C165.523 66.8341 165.498 66.7928 165.465 66.7578C165.432 66.7227 165.393 66.6947 165.349 66.6753C165.305 66.6559 165.258 66.6456 165.21 66.645L161.71 66.915C161.608 66.9352 161.516 66.9892 161.449 67.0681C161.382 67.1471 161.344 67.2464 161.34 67.35L161.095 74.35Z" fill="#263238"/>
<path opacity="0.5" d="M161.73 67.28L161.5 74.34C161.493 74.3818 161.497 74.4246 161.509 74.4649C161.522 74.5052 161.544 74.5419 161.574 74.5721C161.604 74.6023 161.64 74.625 161.68 74.6386C161.72 74.6521 161.763 74.656 161.805 74.65L164.78 74.42C164.98 74.42 165.34 74.265 165.345 74.065L165.595 66.985C165.595 66.785 165.25 66.655 165.05 66.67L162.05 66.9C161.958 66.9101 161.874 66.9552 161.814 67.026C161.754 67.0967 161.724 67.1877 161.73 67.28Z" fill="white"/>
<path d="M157.525 79.66L158.86 76.545C158.86 76.545 159.295 72.37 159.505 71.92C159.715 71.47 163.115 71.64 163.505 71.615C163.895 71.59 163.805 75.755 163.45 76.195C163.095 76.635 161.705 76.985 161.705 76.985L159.57 81.125L157.525 79.66Z" fill="#EBB376"/>
<path d="M153.765 77.97C153.405 79.4 152.02 80.5 149.155 80.47C147.53 80.4424 145.956 79.9035 144.655 78.93C143.62 78.1691 142.723 77.2354 142.005 76.17C142.42 76.095 142.84 76.03 143.26 75.965C145.478 75.6131 147.716 75.4011 149.96 75.33C151.145 75.33 152.4 75.365 153.46 75.42C153.832 76.2155 153.939 77.1093 153.765 77.97Z" fill="#EBB376"/>
<path d="M141.69 97.645L141.07 100.355L157.05 99.515L156.59 96.84L141.69 97.645Z" fill="#263238"/>
<path d="M150.77 99.96C150.622 99.9608 150.479 99.9064 150.369 99.8074C150.259 99.7085 150.19 99.5722 150.175 99.425L149.99 97.695C149.975 97.5309 150.026 97.3675 150.13 97.24C150.182 97.1781 150.246 97.1275 150.318 97.0914C150.39 97.0553 150.469 97.0344 150.55 97.03L152.88 96.87C153.037 96.8589 153.192 96.9098 153.311 97.0117C153.431 97.1136 153.506 97.2584 153.52 97.415L153.68 99.12C153.694 99.2802 153.646 99.4398 153.545 99.565C153.494 99.6263 153.43 99.6765 153.359 99.7126C153.288 99.7487 153.21 99.7699 153.13 99.775L150.82 99.96H150.77ZM150.49 97.64L150.67 99.37C150.674 99.3961 150.687 99.4198 150.707 99.4364C150.728 99.4531 150.754 99.4615 150.78 99.46L153.09 99.28C153.104 99.2783 153.117 99.2738 153.129 99.267C153.141 99.2601 153.152 99.2509 153.16 99.24C153.178 99.2192 153.187 99.1923 153.185 99.165L153.02 97.46C153.019 97.4471 153.016 97.4344 153.01 97.4227C153.005 97.4111 152.997 97.4008 152.987 97.3923C152.977 97.3839 152.966 97.3776 152.953 97.3737C152.941 97.3699 152.928 97.3686 152.915 97.37L150.585 97.53C150.571 97.5294 150.556 97.5323 150.543 97.5384C150.53 97.5445 150.519 97.5536 150.51 97.565C150.505 97.5768 150.502 97.5896 150.502 97.6025C150.502 97.6154 150.505 97.6282 150.51 97.64H150.49Z" fill="white"/>
<path d="M153 98.5H152.14C152.074 98.5 152.01 98.4737 151.963 98.4268C151.916 98.3799 151.89 98.3163 151.89 98.25C151.891 98.1841 151.918 98.1212 151.965 98.0746C152.011 98.028 152.074 98.0013 152.14 98H153C153.066 98.0013 153.129 98.028 153.175 98.0746C153.222 98.1212 153.249 98.1841 153.25 98.25C153.25 98.3163 153.224 98.3799 153.177 98.4268C153.13 98.4737 153.066 98.5 153 98.5Z" fill="white"/>
<path opacity="0.2" d="M143.895 86.175C142.48 86.675 140.895 85.8 139.82 84.955C139.545 84.085 139.23 83.15 138.87 82.13C138.785 81.89 138.57 81.29 138.31 80.595C138.104 80.0403 138.063 79.4379 138.192 78.8605C138.321 78.283 138.613 77.755 139.035 77.34C141.755 79.905 145.785 85.53 143.895 86.175Z" fill="black"/>
<path d="M139 77C139.284 76.7714 139.611 76.6035 139.963 76.507C140.314 76.4105 140.681 76.3873 141.042 76.4389C141.403 76.4905 141.749 76.6157 142.059 76.8069C142.369 76.998 142.637 77.251 142.845 77.55C145.04 80.695 148.725 85.925 149.17 86.18C149.805 86.55 154.595 82.135 158.865 76.535L161.48 77.535C161.48 77.535 154.725 91.425 149.93 91.485C146.335 91.53 140.93 84.24 138.475 80.575C138.096 80.0225 137.94 79.3474 138.037 78.6847C138.135 78.0219 138.478 77.4203 139 77Z" fill="#EBB376"/>
<path opacity="0.2" d="M143.895 102.575C143.895 102.575 142.675 105.89 139.66 107.075V108.265C139.66 108.265 144.08 106.385 144.7 103.265L143.895 102.575Z" fill="black"/>
<path opacity="0.2" d="M140.465 120.035L144.7 119.24L145.71 127.75L141.655 128.34L141.07 122.8L144.73 122.28L144.52 120.18L144.46 122.045L140.345 122.705L140.465 120.035Z" fill="black"/>
</svg>
