<svg width="38" height="38" viewBox="0 0 38 38" fill="none" xmlns="http://www.w3.org/2000/svg">
<path fill-rule="evenodd" clip-rule="evenodd" d="M22.1391 15.8743V18.1184C22.1391 18.4073 22.3064 18.6704 22.569 18.7944C22.8315 18.9185 23.1424 18.8812 23.3678 18.6988L26.8578 15.8743H30.4237C32.0874 15.8743 33.4362 14.5338 33.4362 12.8803V6.89214C33.4362 5.23856 32.0874 3.89807 30.4237 3.89807H19.8797C18.2159 3.89807 16.8672 5.23856 16.8672 6.89214V12.8803C16.8672 14.5338 18.2159 15.8743 19.8797 15.8743H22.1391Z" stroke="white" stroke-width="2.25153" stroke-linecap="round" stroke-linejoin="round"/>
<path d="M28.9169 26.3538V20.3657M4.81641 26.3539V11.3836C4.81619 10.5895 5.13351 9.8278 5.69852 9.2662C6.26353 8.70467 7.02991 8.3893 7.82895 8.38953H12.3478" stroke="url(#paint0_linear_125_341)" stroke-width="2.25153" stroke-linecap="round" stroke-linejoin="round"/>
<path fill-rule="evenodd" clip-rule="evenodd" d="M28.9168 26.3538H23.6975C23.194 26.3537 22.7238 26.6037 22.4443 27.0199L21.8327 27.9316C21.5533 28.3479 21.083 28.5979 20.5795 28.5978H13.1535C12.6501 28.5979 12.1798 28.3479 11.9003 27.9316L11.2888 27.0199C11.0088 26.6035 10.538 26.3536 10.0341 26.3538H4.81633C3.98457 26.3541 3.31035 27.0241 3.31006 27.8508V29.3478C3.31006 30.1419 3.62716 30.9036 4.19217 31.4652C4.75718 32.0267 5.52357 32.3421 6.32261 32.3419H27.4105C28.2095 32.3421 28.9759 32.0267 29.5409 31.4652C30.106 30.9036 30.423 30.1419 30.423 29.3478V27.8508C30.4227 27.0241 29.7485 26.3541 28.9168 26.3538Z" stroke="url(#paint1_linear_125_341)" stroke-width="2.25153" stroke-linecap="round" stroke-linejoin="round"/>
<defs>
<linearGradient id="paint0_linear_125_341" x1="16.8667" y1="8.38953" x2="16.8667" y2="26.3539" gradientUnits="userSpaceOnUse">
<stop stop-color="#FF00F5"/>
<stop offset="1" stop-color="#00F3E5"/>
</linearGradient>
<linearGradient id="paint1_linear_125_341" x1="30.3892" y1="32.2692" x2="30.3892" y2="26.3612" gradientUnits="userSpaceOnUse">
<stop stop-color="#9E00FF" stop-opacity="0.25"/>
<stop offset="1" stop-color="#9E00FF"/>
</linearGradient>
</defs>
</svg>
