<svg width="37" height="37" viewBox="0 0 37 37" fill="none" xmlns="http://www.w3.org/2000/svg">
<path d="M21.8181 26.0158V32.4566L18.5778 30.8464L15.3374 32.4566V26.0158M13.134 22.204L13.9002 23.206L14.0658 24.444C14.1578 25.1306 14.7013 25.6708 15.3922 25.7623L16.6408 25.9283L17.6402 26.6883C18.1935 27.1064 18.9592 27.1064 19.5124 26.6883L20.5206 25.9283L21.7677 25.7623C22.4588 25.671 23.0028 25.1309 23.0956 24.444L23.2626 23.2031C23.2626 23.2031 23.6486 22.7007 24.0273 22.2098C24.4479 21.66 24.4479 20.8989 24.0273 20.3491L23.2626 19.3472L23.0956 18.1091C23.0042 17.4224 22.4613 16.8816 21.7706 16.7894L20.5206 16.6248L19.5124 15.8662C18.9597 15.4468 18.193 15.4468 17.6402 15.8662L16.6321 16.6248L15.385 16.7894C14.6939 16.8804 14.1502 17.4208 14.0586 18.1076L13.8915 19.3486L13.1268 20.3419C12.7086 20.8939 12.7116 21.6552 13.134 22.204Z" stroke="url(#paint0_linear_125_229)" stroke-width="2.69086" stroke-linecap="round" stroke-linejoin="round"/>
<path d="M25.7783 28.1626H28.6586C30.2493 28.1626 31.5388 26.881 31.5388 25.3001V8.97312C31.5388 7.39211 30.2493 6.11047 28.6586 6.11047H8.49651C6.90576 6.11047 5.61621 7.39211 5.61621 8.97312V25.3001C5.61621 26.881 6.90576 28.1626 8.49651 28.1626H11.3768" stroke="url(#paint1_linear_125_229)" stroke-width="2.69086" stroke-linecap="round" stroke-linejoin="round"/>
<path d="M12.0972 10.9869H25.0585" stroke="#FF00F5" stroke-width="2.69086" stroke-linecap="round" stroke-linejoin="round"/>
<defs>
<linearGradient id="paint0_linear_125_229" x1="24.3284" y1="32.2516" x2="24.3284" y2="15.5726" gradientUnits="userSpaceOnUse">
<stop stop-color="#9E00FF"/>
<stop offset="1" stop-color="#00F3E5"/>
</linearGradient>
<linearGradient id="paint1_linear_125_229" x1="18.5775" y1="6.11047" x2="18.5775" y2="28.1626" gradientUnits="userSpaceOnUse">
<stop stop-color="#FF00F5"/>
<stop offset="1" stop-color="#00F3E5"/>
</linearGradient>
</defs>
</svg>
